# Blender 5.0.0
# www.blender.org
mtllib abdomen_7_lower.mtl
o 1645859359680_0.010
v 0.812037 -0.080774 0.592025
v 0.827804 -0.136532 0.610618
v 0.848845 -0.069897 0.586459
v 0.864577 -0.117230 0.601303
v 0.897755 -0.058612 0.581725
v 0.911384 -0.099875 0.594437
v 0.945184 -0.044628 0.578348
v 0.954210 -0.076165 0.586933
v 0.798505 -0.023368 0.580934
v 0.835120 -0.021161 0.577240
v 0.886379 -0.017858 0.574784
v 0.937458 -0.014404 0.574411
v 0.827477 0.192431 0.627027
v 0.815711 0.147276 0.598634
v 0.801785 0.035850 0.578322
v 0.807458 0.094929 0.583420
v 0.868780 0.163589 0.612318
v 0.856588 0.124668 0.589807
v 0.847265 0.079706 0.578163
v 0.840118 0.029383 0.574793
v 0.904382 0.107068 0.585473
v 0.890468 0.024274 0.571986
v 0.896618 0.068098 0.574700
v 0.947620 0.079832 0.579266
v 0.943147 0.049691 0.572145
v 0.939804 0.016560 0.571158
v 0.798505 -0.023368 0.580934
v 0.835120 -0.021161 0.577240
v 0.886379 -0.017858 0.574784
v 0.937458 -0.014404 0.574411
vn -0.0578 -0.3215 -0.9451
vn -0.0652 -0.2662 -0.9617
vn -0.0496 -0.2586 -0.9647
vn -0.0496 -0.3111 -0.9491
vn -0.0163 -0.2394 -0.9708
vn -0.0142 -0.2930 -0.9560
vn -0.0267 -0.2134 -0.9766
vn -0.0265 -0.2607 -0.9651
vn -0.0675 -0.1223 -0.9902
vn -0.1568 -0.1686 -0.9731
vn -0.0297 -0.1193 -0.9924
vn -0.0111 -0.1281 -0.9917
vn 0.0715 0.4992 -0.8636
vn 0.0520 0.4850 -0.8730
vn 0.0237 0.3764 -0.9262
vn 0.0500 0.4285 -0.9022
vn -0.0502 0.1668 -0.9847
vn -0.0693 0.0191 -0.9974
vn -0.0457 0.2027 -0.9782
vn -0.0848 0.0359 -0.9957
vn 0.0327 0.3028 -0.9525
vn -0.0333 0.0047 -0.9994
vn -0.0102 0.1619 -0.9868
vn -0.0196 0.1131 -0.9934
vn -0.0329 -0.0190 -0.9993
vn 0.0167 0.2390 -0.9709
vn -0.0675 -0.1224 -0.9902
vn -0.1636 -0.0871 -0.9827
vn -0.0297 -0.1192 -0.9924
vn -0.0128 -0.1077 -0.9941
vt 0.146188 0.057256
vt 0.136810 0.048849
vt 0.151567 0.038568
vt 0.160053 0.045941
vt 0.172599 0.027648
vt 0.179379 0.034750
vt 0.193741 0.019048
vt 0.197964 0.025115
vt 0.143337 0.030732
vt 0.127432 0.039943
vt 0.166605 0.020333
vt 0.190219 0.013103
vt 0.430453 0.071045
vt 0.417971 0.057906
vt 0.426766 0.052196
vt 0.439968 0.064471
vt 0.435060 0.045946
vt 0.443546 0.038573
vt 0.448924 0.057261
vt 0.458302 0.048854
vt 0.408910 0.041035
vt 0.422516 0.027653
vt 0.415735 0.034756
vt 0.397152 0.025120
vt 0.401376 0.019053
vt 0.392573 0.030463
vt 0.451776 0.030737
vt 0.467681 0.039948
vt 0.428510 0.020338
vt 0.404897 0.013108
s 1
usemtl mtl_bee41.001
f 2/1/1 1/2/2 3/3/3
f 2/1/1 3/3/3 4/4/4
f 3/3/3 5/5/5 4/4/4
f 4/4/4 5/5/5 6/6/6
f 5/5/5 7/7/7 6/6/6
f 6/6/6 7/7/7 8/8/8
f 1/2/2 10/9/9 3/3/3
f 10/9/9 1/2/2 9/10/10
f 3/3/3 11/11/11 5/5/5
f 11/11/11 3/3/3 10/9/9
f 5/5/5 12/12/12 7/7/7
f 12/12/12 5/5/5 11/11/11
f 13/13/13 17/14/14 18/15/15
f 13/13/13 18/15/15 14/16/16
f 19/17/17 20/18/18 16/19/19
f 16/19/19 20/18/18 15/20/20
f 17/14/14 21/21/21 18/15/15
f 20/18/18 19/17/17 22/22/22
f 19/17/17 23/23/23 22/22/22
f 23/23/23 25/24/24 26/25/25
f 23/23/23 26/25/25 22/22/22
f 14/16/16 19/17/17 16/19/19
f 19/17/17 14/16/16 18/15/15
f 18/15/15 23/23/23 19/17/17
f 23/23/23 18/15/15 21/21/21
f 21/21/21 24/26/26 23/23/23
f 24/26/26 25/24/24 23/23/23
f 15/20/20 28/27/27 27/28/28
f 28/27/27 15/20/20 20/18/18
f 20/18/18 29/29/29 28/27/27
f 29/29/29 20/18/18 22/22/22
f 22/22/22 30/30/30 29/29/29
f 30/30/30 22/22/22 26/25/25
