# Blender 5.0.0
# www.blender.org
mtllib abdomen_6_lower.mtl
o 1645859359680_0.009
v 0.642777 -0.111696 0.647271
v 0.661505 -0.195026 0.671679
v 0.769205 -0.090597 0.601746
v 0.812037 -0.080774 0.592025
v 0.787434 -0.153861 0.621891
v 0.827804 -0.136532 0.610618
v 0.725015 -0.098427 0.619413
v 0.741063 -0.168413 0.644166
v 0.678864 -0.104985 0.639533
v 0.694173 -0.182529 0.664680
v 0.668345 -0.106799 0.643826
v 0.683938 -0.186232 0.668493
v 0.662989 -0.107992 0.645263
v 0.679091 -0.188270 0.669627
v 0.657681 -0.109390 0.645134
v 0.674248 -0.190714 0.669876
v 0.628058 -0.030886 0.633246
v 0.643769 -0.030031 0.630494
v 0.649755 -0.029538 0.631559
v 0.666691 -0.028853 0.625586
v 0.655981 -0.029228 0.630109
v 0.711571 -0.027377 0.605396
v 0.752961 -0.025646 0.591470
v 0.798505 -0.023368 0.580934
v 0.827477 0.192431 0.627027
v 0.783098 0.217855 0.645025
v 0.815711 0.147276 0.598634
v 0.772416 0.166975 0.609893
v 0.757626 0.041128 0.586268
v 0.764410 0.108059 0.591115
v 0.801785 0.035850 0.578322
v 0.807458 0.094929 0.583420
v 0.731996 0.240695 0.668594
v 0.721986 0.183973 0.630931
v 0.712362 0.045518 0.602499
v 0.715765 0.119388 0.610348
v 0.680394 0.266972 0.686429
v 0.671361 0.201933 0.647867
v 0.665346 0.048790 0.621463
v 0.666705 0.129953 0.627962
v 0.669670 0.273962 0.687798
v 0.655720 0.209202 0.650224
v 0.660566 0.206752 0.650024
v 0.654579 0.049800 0.625424
v 0.655897 0.132759 0.631009
v 0.649060 0.050460 0.626645
v 0.650738 0.134262 0.631728
v 0.643575 0.051083 0.626278
v 0.645527 0.136020 0.631482
v 0.643769 -0.030031 0.630494
v 0.649755 -0.029538 0.631559
v 0.666691 -0.028853 0.625586
v 0.655981 -0.029228 0.630109
v 0.711571 -0.027377 0.605396
v 0.752961 -0.025646 0.591470
v 0.798505 -0.023368 0.580934
vn -0.2432 -0.2935 -0.9245
vn -0.1470 -0.2861 -0.9469
vn -0.2206 -0.3471 -0.9115
vn -0.1143 -0.3399 -0.9335
vn -0.3168 -0.3085 -0.8969
vn -0.2866 -0.3732 -0.8824
vn -0.3484 -0.2946 -0.8898
vn -0.2514 -0.3217 -0.9129
vn -0.2762 -0.2793 -0.9196
vn -0.1425 -0.2988 -0.9436
vn -0.0560 -0.2435 -0.9683
vn 0.0093 -0.2893 -0.9572
vn -0.0489 -0.2441 -0.9685
vn 0.0313 -0.2605 -0.9650
vn -0.0542 -0.2297 -0.9718
vn -0.0842 -0.1867 -0.9788
vn -0.2370 -0.2299 -0.9439
vn -0.0743 -0.1229 -0.9896
vn -0.0117 -0.1177 -0.9930
vn -0.3987 -0.1411 -0.9062
vn -0.3202 -0.1382 -0.9372
vn -0.3550 -0.1394 -0.9244
vn -0.2777 -0.1356 -0.9511
vn -0.1556 -0.1422 -0.9775
vn -0.0742 0.5699 -0.8183
vn -0.0697 0.3977 -0.9149
vn -0.1221 0.4537 -0.8827
vn -0.0347 0.5336 -0.8450
vn -0.2688 0.0290 -0.9628
vn -0.2264 0.2092 -0.9513
vn -0.1719 0.0229 -0.9849
vn -0.1253 0.1884 -0.9741
vn -0.0511 0.5598 -0.8270
vn -0.1679 0.4438 -0.8802
vn -0.3454 0.0373 -0.9377
vn -0.2947 0.2090 -0.9324
vn 0.0255 0.4893 -0.8718
vn -0.1382 0.4153 -0.8991
vn -0.3749 0.0198 -0.9269
vn -0.2949 0.1840 -0.9376
vn 0.0375 0.3657 -0.9300
vn 0.1941 0.4336 -0.8799
vn -0.2996 0.0103 -0.9540
vn -0.1785 0.1643 -0.9701
vn -0.0735 0.0025 -0.9973
vn 0.0061 0.1482 -0.9889
vn 0.1003 -0.0262 -0.9946
vn 0.1313 0.1626 -0.9779
vn 0.0831 0.2320 -0.9692
vn 0.0993 -0.0010 -0.9951
vn -0.3986 -0.1419 -0.9061
vn -0.3202 -0.1384 -0.9372
vn -0.3550 -0.1402 -0.9243
vn -0.2775 -0.1366 -0.9510
vn -0.1572 -0.1169 -0.9806
vt 0.120780 0.061875
vt 0.136810 0.048849
vt 0.132164 0.070173
vt 0.146188 0.057256
vt 0.105485 0.076932
vt 0.117264 0.086338
vt 0.090488 0.093698
vt 0.103733 0.103633
vt 0.087274 0.097786
vt 0.100984 0.107602
vt 0.085683 0.099889
vt 0.099698 0.109505
vt 0.084118 0.101949
vt 0.098424 0.111437
vt 0.095034 0.116204
vt 0.079745 0.107574
vt 0.064744 0.098558
vt 0.069818 0.092527
vt 0.071824 0.090261
vt 0.077553 0.083752
vt 0.073903 0.087891
vt 0.093323 0.067164
vt 0.108869 0.053363
vt 0.127432 0.039943
vt 0.442654 0.085445
vt 0.439968 0.064471
vt 0.452916 0.077916
vt 0.430453 0.071045
vt 0.474331 0.061879
vt 0.462947 0.070177
vt 0.458302 0.048854
vt 0.448924 0.057261
vt 0.455367 0.102458
vt 0.466853 0.094662
vt 0.489625 0.076935
vt 0.477846 0.086341
vt 0.466445 0.120108
vt 0.479221 0.112179
vt 0.504621 0.093700
vt 0.491375 0.103636
vt 0.481611 0.116048
vt 0.468603 0.123875
vt 0.507834 0.097788
vt 0.494126 0.107604
vt 0.509425 0.099890
vt 0.495411 0.109507
vt 0.510991 0.101951
vt 0.496685 0.111439
vt 0.482684 0.117803
vt 0.523284 0.090262
vt 0.525291 0.092528
vt 0.517556 0.083754
vt 0.521206 0.087893
vt 0.501787 0.067167
vt 0.486241 0.053367
vt 0.467681 0.039948
s 1
usemtl mtl_bee41.001
f 3/1/1 4/2/2 5/3/3
f 5/3/3 4/2/2 6/4/4
f 7/5/5 3/1/1 8/6/6
f 8/6/6 3/1/1 5/3/3
f 9/7/7 7/5/5 10/8/8
f 10/8/8 7/5/5 8/6/6
f 11/9/9 10/8/8 12/10/10
f 10/8/8 11/9/9 9/7/7
f 13/11/11 12/10/10 14/12/12
f 12/10/10 13/11/11 11/9/9
f 15/13/13 14/12/12 16/14/14
f 14/12/12 15/13/13 13/11/11
f 2/15/15 15/13/13 16/14/14
f 15/13/13 2/15/15 1/16/16
f 1/16/16 17/17/17 18/18/18
f 1/16/16 18/18/18 15/13/13
f 19/19/19 15/13/13 18/18/18
f 15/13/13 19/19/19 13/11/11
f 11/9/9 20/20/20 9/7/7
f 20/20/20 11/9/9 21/21/21
f 13/11/11 21/21/21 11/9/9
f 21/21/21 13/11/11 19/19/19
f 9/7/7 22/22/22 7/5/5
f 22/22/22 9/7/7 20/20/20
f 7/5/5 23/23/23 3/1/1
f 23/23/23 7/5/5 22/22/22
f 3/1/1 24/24/24 4/2/2
f 24/24/24 3/1/1 23/23/23
f 26/25/25 27/26/26 28/27/27
f 27/26/26 26/25/25 25/28/28
f 29/29/29 30/30/30 31/31/31
f 30/30/30 32/32/32 31/31/31
f 33/33/33 28/27/27 34/34/34
f 28/27/27 33/33/33 26/25/25
f 35/35/35 36/36/36 29/29/29
f 36/36/36 30/30/30 29/29/29
f 37/37/37 34/34/34 38/38/38
f 34/34/34 37/37/37 33/33/33
f 39/39/39 40/40/40 35/35/35
f 40/40/40 36/36/36 35/35/35
f 37/37/37 43/41/41 41/42/42
f 43/41/41 37/37/37 38/38/38
f 44/43/43 40/40/40 39/39/39
f 40/40/40 44/43/43 45/44/44
f 46/45/45 47/46/46 45/44/44
f 46/45/45 45/44/44 44/43/43
f 48/47/47 47/46/46 46/45/45
f 47/46/46 48/47/47 49/48/48
f 49/48/48 42/49/49 47/46/46
f 45/44/44 43/41/41 38/38/38
f 45/44/44 38/38/38 40/40/40
f 47/46/46 42/49/49 43/41/41
f 43/41/41 45/44/44 47/46/46
f 38/38/38 36/36/36 40/40/40
f 36/36/36 38/38/38 34/34/34
f 34/34/34 30/30/30 36/36/36
f 30/30/30 34/34/34 28/27/27
f 28/27/27 32/32/32 30/30/30
f 32/32/32 28/27/27 27/26/26
f 48/47/47 51/50/19 50/51/50
f 51/50/19 48/47/47 46/45/45
f 44/43/43 52/52/51 53/53/52
f 52/52/51 44/43/43 39/39/39
f 46/45/45 53/53/52 51/50/19
f 53/53/52 46/45/45 44/43/43
f 39/39/39 54/54/53 52/52/51
f 54/54/53 39/39/39 35/35/35
f 35/35/35 55/55/54 54/54/53
f 55/55/54 35/35/35 29/29/29
f 29/29/29 56/56/55 55/55/54
f 56/56/55 29/29/29 31/31/31
