# Blender 5.0.0
# www.blender.org
mtllib abdomen_3_lower.mtl
o 1645859359680_0.006
v 0.149848 -0.125048 0.828298
v 0.195586 -0.131229 0.788186
v 0.159684 -0.203666 0.851314
v 0.207960 -0.214410 0.813946
v 0.269200 -0.221973 0.780807
v 0.255424 -0.134286 0.755677
v 0.318280 -0.133547 0.728117
v 0.334107 -0.222474 0.751492
v 0.146488 -0.202457 0.856012
v 0.140588 -0.202220 0.856145
v 0.149438 -0.202811 0.855464
v 0.136062 -0.124631 0.833467
v 0.130453 -0.124547 0.834071
v 0.139244 -0.124765 0.832868
v 0.152087 -0.202888 0.855097
v 0.142178 -0.124703 0.832298
v 0.121266 -0.050679 0.821387
v 0.130358 -0.050194 0.819673
v 0.126790 -0.050381 0.820390
v 0.141789 -0.049856 0.814046
v 0.133786 -0.050048 0.818562
v 0.186051 -0.050222 0.770928
v 0.244214 -0.048799 0.738521
v 0.305230 -0.046731 0.711847
v 0.132944 0.259877 0.868971
v 0.186149 0.280700 0.831098
v 0.179627 0.200569 0.792467
v 0.130389 0.184885 0.832524
v 0.136539 0.026368 0.810505
v 0.132330 0.107508 0.814749
v 0.181211 0.032306 0.768970
v 0.178683 0.118639 0.774811
v 0.313785 0.307682 0.748196
v 0.245796 0.300405 0.787801
v 0.306127 0.221892 0.722041
v 0.239631 0.215732 0.754778
v 0.238341 0.129078 0.739556
v 0.302870 0.041751 0.707520
v 0.240255 0.038283 0.735399
v 0.302793 0.133751 0.709633
v 0.133455 0.383118 1.008685
v 0.136279 0.380766 1.012680
v 0.112799 0.326052 0.926109
v 0.117824 0.256081 0.874845
v 0.110517 0.256396 0.872521
v 0.121734 0.322700 0.931238
v 0.125051 0.321253 0.933274
v 0.120517 0.256122 0.875234
v 0.111137 0.180930 0.836884
v 0.119436 0.105290 0.819849
v 0.113645 0.104287 0.820130
v 0.117479 0.181815 0.837480
v 0.120215 0.182477 0.837070
v 0.122297 0.105945 0.819185
v 0.122917 0.024911 0.815895
v 0.117381 0.024168 0.816596
v 0.126045 0.025375 0.815226
v 0.140264 0.382969 1.010696
v 0.123218 0.257129 0.874119
v 0.122760 0.183079 0.836486
v 0.124906 0.106319 0.818763
v 0.128964 0.025622 0.814634
v 0.121266 -0.050679 0.821387
v 0.130358 -0.050194 0.819673
v 0.126790 -0.050381 0.820390
v 0.141789 -0.049856 0.814046
v 0.133786 -0.050048 0.818562
v 0.186051 -0.050222 0.770928
v 0.244214 -0.048799 0.738521
v 0.305230 -0.046731 0.711847
vn -0.6399 -0.2544 -0.7252
vn -0.5558 -0.2752 -0.7844
vn -0.5042 -0.2605 -0.8234
vn -0.5479 -0.3113 -0.7765
vn -0.4321 -0.3069 -0.8480
vn -0.4289 -0.2734 -0.8610
vn -0.3875 -0.2692 -0.8817
vn -0.3952 -0.2961 -0.8695
vn 0.0127 -0.2823 -0.9592
vn -0.1359 -0.2415 -0.9608
vn -0.1082 -0.2735 -0.9558
vn -0.1012 -0.2791 -0.9549
vn -0.1862 -0.2482 -0.9506
vn -0.1726 -0.2933 -0.9403
vn -0.3093 -0.2255 -0.9238
vn -0.3894 -0.2578 -0.8843
vn -0.2436 -0.1342 -0.9605
vn -0.1745 -0.1301 -0.9760
vn -0.1590 -0.1270 -0.9791
vn -0.6671 -0.1447 -0.7308
vn -0.4325 -0.1426 -0.8903
vn -0.5775 -0.1455 -0.8033
vn -0.4380 -0.1431 -0.8875
vn -0.3422 -0.1674 -0.9246
vn -0.6124 0.3345 -0.7162
vn -0.5995 0.2788 -0.7502
vn -0.6428 0.2604 -0.7204
vn -0.6122 0.3647 -0.7016
vn -0.6611 -0.0323 -0.7496
vn -0.6489 0.0842 -0.7562
vn -0.5804 -0.0110 -0.8143
vn -0.5845 0.1024 -0.8049
vn -0.5492 0.3227 -0.7709
vn -0.4622 0.2319 -0.8559
vn -0.5110 0.2615 -0.8188
vn -0.5111 0.2911 -0.8087
vn -0.4751 0.0969 -0.8746
vn -0.4097 -0.0147 -0.9121
vn -0.4521 -0.0085 -0.8919
vn -0.4315 0.0869 -0.8979
vn 0.5932 0.4815 -0.6452
vn 0.2527 0.5256 -0.8123
vn 0.3032 0.4810 -0.8226
vn 0.5904 0.5315 -0.6074
vn 0.5769 0.5492 -0.6046
vn -0.1057 0.5324 -0.8399
vn 0.0648 0.2051 -0.9766
vn -0.1281 0.1292 -0.9833
vn -0.0368 0.1605 -0.9863
vn -0.1314 0.2420 -0.9613
vn -0.2481 0.3338 -0.9094
vn -0.2156 0.1279 -0.9681
vn -0.1530 -0.0117 -0.9882
vn -0.0924 0.0210 -0.9955
vn -0.2044 -0.0117 -0.9788
vn 0.0190 0.7929 -0.6090
vn 0.8869 0.3178 -0.3354
vn -0.5943 0.6744 -0.4382
vn -0.4494 0.3036 -0.8402
vn -0.5018 0.3848 -0.7747
vn -0.4173 0.1082 -0.9023
vn -0.4096 -0.0222 -0.9120
vn -0.2436 -0.1342 -0.9606
vn -0.1745 -0.1300 -0.9760
vn -0.1554 -0.1307 -0.9792
vn -0.6671 -0.1444 -0.7308
vn -0.4326 -0.1426 -0.8902
vn -0.5776 -0.1450 -0.8033
vn -0.4380 -0.1425 -0.8876
vn -0.3472 -0.1119 -0.9311
vt 0.032637 0.334632
vt 0.027428 0.309660
vt 0.049063 0.331978
vt 0.044563 0.307751
vt 0.042195 0.279201
vt 0.024302 0.279947
vt 0.024433 0.249390
vt 0.042476 0.249650
vt 0.050860 0.340472
vt 0.034266 0.341211
vt 0.050360 0.337925
vt 0.034879 0.343778
vt 0.033930 0.339744
vt 0.050125 0.336639
vt 0.049882 0.335485
vt 0.033585 0.338388
vt 0.018405 0.343429
vt 0.018876 0.345145
vt 0.019614 0.347794
vt 0.016798 0.337626
vt 0.017944 0.341751
vt 0.010183 0.311629
vt 0.006034 0.280764
vt 0.005851 0.248842
vt 0.513811 0.328193
vt 0.534562 0.305865
vt 0.530194 0.330078
vt 0.517774 0.304040
vt 0.562478 0.334621
vt 0.546052 0.331968
vt 0.567686 0.309649
vt 0.550550 0.307742
vt 0.519841 0.277409
vt 0.536084 0.249607
vt 0.536435 0.278379
vt 0.519908 0.249310
vt 0.552917 0.279193
vt 0.570678 0.249382
vt 0.570810 0.279937
vt 0.552635 0.249643
vt 0.495245 0.337140
vt 0.512590 0.334525
vt 0.512269 0.337384
vt 0.495492 0.333700
vt 0.495565 0.332400
vt 0.512723 0.333484
vt 0.528713 0.338380
vt 0.544756 0.337916
vt 0.544255 0.340462
vt 0.529113 0.335752
vt 0.529285 0.334597
vt 0.544991 0.336629
vt 0.560850 0.341199
vt 0.560237 0.343766
vt 0.561186 0.339733
vt 0.476487 0.330414
vt 0.476749 0.331664
vt 0.476777 0.328900
vt 0.529463 0.333512
vt 0.512908 0.332344
vt 0.545233 0.335475
vt 0.561531 0.338377
vt 0.576711 0.343416
vt 0.576240 0.345132
vt 0.575503 0.347781
vt 0.578318 0.337613
vt 0.577172 0.341738
vt 0.584931 0.311617
vt 0.589078 0.280752
vt 0.589259 0.248832
s 1
usemtl mtl_bee41.001
f 1/1/1 2/2/2 3/3/3
f 3/3/3 2/2/2 4/4/4
f 5/5/5 6/6/6 7/7/7
f 5/5/5 7/7/7 8/8/8
f 10/9/9 12/10/10 9/11/11
f 12/10/10 10/9/9 13/12/12
f 14/13/13 11/14/14 9/11/11
f 9/11/11 12/10/10 14/13/13
f 15/15/15 16/16/16 1/1/1
f 15/15/15 1/1/1 3/3/3
f 11/14/14 16/16/16 15/15/15
f 16/16/16 11/14/14 14/13/13
f 4/4/4 6/6/6 5/5/5
f 6/6/6 4/4/4 2/2/2
f 12/10/10 18/17/17 14/13/13
f 18/17/17 12/10/10 19/18/18
f 13/12/12 19/18/18 12/10/10
f 19/18/18 13/12/12 17/19/19
f 20/20/20 16/16/16 21/21/21
f 16/16/16 20/20/20 1/1/1
f 14/13/13 18/17/17 21/21/21
f 14/13/13 21/21/21 16/16/16
f 1/1/1 22/22/22 2/2/2
f 22/22/22 1/1/1 20/20/20
f 2/2/2 23/23/23 6/6/6
f 23/23/23 2/2/2 22/22/22
f 6/6/6 24/24/24 7/7/7
f 24/24/24 6/6/6 23/23/23
f 25/25/25 27/26/26 28/27/27
f 27/26/26 25/25/25 26/28/28
f 29/29/29 30/30/30 31/31/31
f 30/30/30 32/32/32 31/31/31
f 34/33/33 35/34/34 36/35/35
f 35/34/34 34/33/33 33/36/36
f 37/37/37 38/38/38 39/39/39
f 38/38/38 37/37/37 40/40/40
f 28/27/27 32/32/32 30/30/30
f 32/32/32 28/27/27 27/26/26
f 36/35/35 40/40/40 37/37/37
f 40/40/40 36/35/35 35/34/34
f 43/41/41 44/42/42 45/43/43
f 44/42/42 43/41/41 46/44/44
f 47/45/45 48/46/46 46/44/44
f 44/42/42 46/44/44 48/46/46
f 49/47/47 50/48/48 51/49/49
f 50/48/48 49/47/47 52/50/50
f 53/51/51 54/52/52 52/50/50
f 50/48/48 52/50/50 54/52/52
f 51/49/49 55/53/53 56/54/54
f 55/53/53 51/49/49 50/48/48
f 54/52/52 57/55/55 50/48/48
f 55/53/53 50/48/48 57/55/55
f 52/50/50 45/43/43 44/42/42
f 48/46/46 53/51/51 44/42/42
f 52/50/50 44/42/42 53/51/51
f 42/56/56 47/45/45 41/57/57
f 41/57/57 47/45/45 46/44/44
f 58/58/58 47/45/45 42/56/56
f 48/46/46 60/59/59 53/51/51
f 60/59/59 48/46/46 59/60/60
f 25/25/25 28/27/27 59/60/60
f 60/59/59 59/60/60 28/27/27
f 60/59/59 30/30/30 61/61/61
f 30/30/30 60/59/59 28/27/27
f 53/51/51 61/61/61 54/52/52
f 60/59/59 61/61/61 53/51/51
f 61/61/61 29/29/29 62/62/62
f 29/29/29 61/61/61 30/30/30
f 54/52/52 62/62/62 57/55/55
f 62/62/62 54/52/52 61/61/61
f 26/28/28 36/35/35 27/26/26
f 36/35/35 26/28/28 34/33/33
f 27/26/26 37/37/37 32/32/32
f 37/37/37 27/26/26 36/35/35
f 32/32/32 39/39/39 31/31/31
f 39/39/39 32/32/32 37/37/37
f 55/53/53 64/63/63 65/64/64
f 64/63/63 55/53/53 57/55/55
f 56/54/54 65/64/64 63/65/65
f 65/64/64 56/54/54 55/53/53
f 62/62/62 66/66/66 67/67/67
f 66/66/66 62/62/62 29/29/29
f 57/55/55 67/67/67 64/63/63
f 67/67/67 57/55/55 62/62/62
f 29/29/29 68/68/68 66/66/66
f 68/68/68 29/29/29 31/31/31
f 31/31/31 69/69/69 68/68/68
f 69/69/69 31/31/31 39/39/39
f 39/39/39 70/70/70 69/69/69
f 70/70/70 39/39/39 38/38/38
