# Blender 5.0.0
# www.blender.org
mtllib abdomen_4_lower.mtl
o 1645859359680_0.007
v 0.424082 -0.210271 0.727320
v 0.408389 -0.125042 0.707046
v 0.318280 -0.133547 0.728117
v 0.334107 -0.222474 0.751492
v 0.398643 -0.214797 0.730563
v 0.382577 -0.127919 0.710852
v 0.305230 -0.046731 0.711847
v 0.370389 -0.043489 0.696556
v 0.396989 -0.042014 0.692233
v 0.419213 0.293334 0.723384
v 0.435590 0.366288 0.764397
v 0.440102 0.361502 0.770854
v 0.424596 0.290211 0.727414
v 0.411128 0.297084 0.719648
v 0.399678 0.214783 0.696128
v 0.394147 0.130266 0.687305
v 0.393674 0.042348 0.687378
v 0.313785 0.307682 0.748196
v 0.306127 0.221892 0.722041
v 0.302870 0.041751 0.707520
v 0.302793 0.133751 0.709633
v 0.384131 0.301200 0.720375
v 0.373245 0.217687 0.697970
v 0.368181 0.131740 0.689842
v 0.367618 0.042259 0.690856
v 0.444423 0.291424 0.725420
v 0.305230 -0.046731 0.711847
v 0.370389 -0.043489 0.696556
v 0.396989 -0.042014 0.692233
vn -0.1897 -0.2059 -0.9600
vn -0.2114 -0.2313 -0.9496
vn -0.1795 -0.2259 -0.9575
vn -0.1120 -0.1981 -0.9738
vn -0.2493 -0.2700 -0.9300
vn -0.2267 -0.2409 -0.9437
vn -0.2113 -0.1328 -0.9684
vn -0.2767 -0.1611 -0.9474
vn -0.2016 -0.1195 -0.9721
vn 0.0915 0.2803 -0.9555
vn 0.5044 0.4024 -0.7639
vn 0.6803 0.2718 -0.6807
vn 0.5088 0.3006 -0.8067
vn 0.5158 0.3377 -0.7873
vn 0.6084 0.3202 -0.7262
vn -0.2405 0.2335 -0.9421
vn -0.0854 0.2367 -0.9678
vn -0.2579 0.2034 -0.9445
vn -0.0924 0.2448 -0.9652
vn -0.1359 0.0111 -0.9907
vn -0.2486 0.0575 -0.9669
vn -0.1755 0.0104 -0.9844
vn -0.2269 -0.0323 -0.9734
vn -0.3188 0.2851 -0.9039
vn -0.3074 0.2236 -0.9249
vn -0.2772 0.0778 -0.9577
vn -0.2438 -0.0191 -0.9696
vn -0.1188 0.5536 -0.8243
vn -0.2114 -0.1319 -0.9685
vn -0.2813 -0.1098 -0.9533
vn -0.2021 -0.1461 -0.9684
vt 0.045633 0.220912
vt 0.028152 0.219129
vt 0.030712 0.207243
vt 0.047852 0.209864
vt 0.042476 0.249650
vt 0.024433 0.249390
vt 0.010287 0.216360
vt 0.005851 0.248842
vt 0.013425 0.203448
vt 0.497382 0.207438
vt 0.513700 0.206475
vt 0.514318 0.208836
vt 0.498284 0.209748
vt 0.515086 0.212079
vt 0.517447 0.221954
vt 0.531144 0.211240
vt 0.533328 0.221737
vt 0.547257 0.209859
vt 0.549477 0.220907
vt 0.564397 0.207237
vt 0.566957 0.219123
vt 0.519908 0.249310
vt 0.536084 0.249607
vt 0.552635 0.249643
vt 0.570678 0.249382
vt 0.510980 0.199426
vt 0.584823 0.216352
vt 0.589259 0.248832
vt 0.581684 0.203441
s 1
usemtl mtl_bee41.001
f 5/1/1 6/2/2 2/3/3
f 5/1/1 2/3/3 1/4/4
f 4/5/5 6/2/2 5/1/1
f 6/2/2 4/5/5 3/6/6
f 3/6/6 8/7/7 6/2/2
f 8/7/7 3/6/6 7/8/8
f 9/9/9 6/2/2 8/7/7
f 6/2/2 9/9/9 2/3/3
f 12/10/10 13/11/11 10/12/12
f 11/13/13 10/12/14 14/14/15
f 22/15/16 15/16/17 23/17/18
f 15/16/17 22/15/16 14/14/19
f 23/17/18 16/18/20 24/19/21
f 16/18/20 23/17/18 15/16/17
f 24/19/21 17/20/22 25/21/23
f 17/20/22 24/19/21 16/18/20
f 18/22/24 23/17/18 19/23/25
f 23/17/18 18/22/24 22/15/16
f 19/23/25 24/19/21 21/24/26
f 24/19/21 19/23/25 23/17/18
f 21/24/26 25/21/23 20/25/27
f 25/21/23 21/24/26 24/19/21
f 12/10/10 26/26/28 13/11/11
f 20/25/27 28/27/29 27/28/30
f 28/27/29 20/25/27 25/21/23
f 25/21/23 29/29/31 28/27/29
f 29/29/31 25/21/23 17/20/22
