# Blender 5.0.0
# www.blender.org
mtllib abdomen_6_body.mtl
o 1645859359680_0.012
v 0.872037 -0.297514 1.296305
v 0.853567 -0.362848 1.238442
v 0.836066 -0.403245 1.177388
v 0.815421 -0.426766 1.105284
v 0.789753 -0.435615 1.018993
v 0.755424 -0.417775 0.910599
v 0.703159 -0.330129 0.757925
v 0.725586 -0.380481 0.820375
v 0.681157 -0.267734 0.706774
v 0.661505 -0.195026 0.671679
v 1.034210 -0.024942 1.024953
v 1.005795 -0.091149 1.114067
v 1.035597 -0.081349 1.014696
v 1.005046 -0.026913 1.126054
v 1.030704 -0.135423 0.999641
v 0.983676 -0.211958 1.065642
v 1.017083 -0.189033 0.976624
v 0.999954 -0.151824 1.095585
v 0.963858 -0.260427 1.031271
v 0.998695 -0.229207 0.950038
v 0.976427 -0.258055 0.914088
v 0.917879 -0.315211 0.939285
v 0.952579 -0.274119 0.871082
v 0.941904 -0.295128 0.989034
v 0.927987 -0.278235 0.821393
v 0.863146 -0.306422 0.813056
v 0.903841 -0.268784 0.768852
v 0.891659 -0.319293 0.881928
v 0.882963 -0.249172 0.719387
v 0.842308 -0.281282 0.753042
v 0.863878 -0.221681 0.675687
v 0.824182 -0.249522 0.699944
v 0.844818 -0.183849 0.637544
v 0.805292 -0.207032 0.653841
v 0.787434 -0.153861 0.621891
v 0.827804 -0.136532 0.610618
v 0.968083 -0.104949 1.207662
v 0.969442 -0.031401 1.213774
v 0.943346 -0.240935 1.159011
v 0.960073 -0.173998 1.191055
v 0.923219 -0.296740 1.116570
v 0.877287 -0.356605 1.009618
v 0.901058 -0.334482 1.067125
v 0.821480 -0.344138 0.862110
v 0.851351 -0.361387 0.942417
v 0.777318 -0.274898 0.729180
v 0.796628 -0.312789 0.787514
v 0.758117 -0.227043 0.679227
v 0.741063 -0.168413 0.644166
v 0.925630 -0.035538 1.281183
v 0.919705 -0.116717 1.286409
v 0.893641 -0.270394 1.251715
v 0.909338 -0.194821 1.278815
v 0.876529 -0.331272 1.201253
v 0.837658 -0.392815 1.078970
v 0.859345 -0.369875 1.146248
v 0.779799 -0.382732 0.905006
v 0.812793 -0.400627 1.004050
v 0.751052 -0.349107 0.816253
v 0.730634 -0.304562 0.753587
v 0.710968 -0.248647 0.700813
v 0.694173 -0.182529 0.664680
v 0.907673 -0.118945 1.301074
v 0.910203 -0.036876 1.300902
v 0.914802 -0.036367 1.294564
v 0.881244 -0.275902 1.267404
v 0.896685 -0.198673 1.294354
v 0.892254 -0.200301 1.300557
v 0.876848 -0.277917 1.272593
v 0.861274 -0.341379 1.219068
v 0.865536 -0.338132 1.215288
v 0.845425 -0.380395 1.162351
v 0.825450 -0.403577 1.094419
v 0.849476 -0.376982 1.158906
v 0.829118 -0.399922 1.091153
v 0.801032 -0.412979 1.015382
v 0.771198 -0.392318 0.910279
v 0.804432 -0.408665 1.013647
v 0.767686 -0.397141 0.910620
v 0.721227 -0.312571 0.756718
v 0.742075 -0.358709 0.819908
v 0.738482 -0.363329 0.820120
v 0.717276 -0.316496 0.757164
v 0.696738 -0.257436 0.705056
v 0.701105 -0.254439 0.704216
v 0.683938 -0.186232 0.668493
v 0.679091 -0.188270 0.669627
v 0.876655 -0.283667 1.280192
v 0.892011 -0.205153 1.309286
v 0.859717 -0.345744 1.223576
v 0.843896 -0.383703 1.165277
v 0.824527 -0.406659 1.096241
v 0.765922 -0.402886 0.909578
v 0.800502 -0.416860 1.015659
v 0.735741 -0.368937 0.819537
v 0.713639 -0.321179 0.756902
v 0.692386 -0.260998 0.705280
v 0.674248 -0.190714 0.669876
v 1.029625 0.026945 1.021223
v 1.000233 0.032873 1.122293
v 0.966117 0.036805 1.202051
v 0.927834 0.038720 1.259723
v 0.913617 0.039143 1.277461
v 0.918409 0.039038 1.271963
v 0.915959 0.040130 1.288006
v 1.025121 0.078470 1.012802
v 0.984365 0.152652 1.085420
v 0.994584 0.092095 1.112087
v 1.016862 0.131787 0.989652
v 1.002868 0.181255 0.962430
v 0.942243 0.259383 1.010258
v 0.968335 0.207866 1.053321
v 0.980435 0.227869 0.927635
v 0.955667 0.260260 0.892524
v 0.914733 0.298421 0.965602
v 0.929158 0.279693 0.850900
v 0.861061 0.331165 0.863332
v 0.887602 0.322603 0.916448
v 0.903393 0.285423 0.805333
v 0.879054 0.278429 0.755983
v 0.810212 0.295771 0.742295
v 0.835223 0.322735 0.806487
v 0.857545 0.257894 0.706965
v 0.840981 0.228420 0.663268
v 0.827477 0.192431 0.627027
v 0.794788 0.259308 0.689520
v 0.783098 0.217855 0.645025
v 0.943449 0.175440 1.174685
v 0.957440 0.105225 1.197705
v 0.896104 0.296506 1.095860
v 0.923790 0.238778 1.142553
v 0.867126 0.341374 1.041589
v 0.812824 0.376740 0.923446
v 0.839364 0.367363 0.984655
v 0.761840 0.334344 0.782384
v 0.787279 0.367505 0.856770
v 0.731996 0.240695 0.668594
v 0.743723 0.289063 0.716794
v 0.912502 0.113775 1.263642
v 0.892510 0.192533 1.250083
v 0.840625 0.332738 1.180843
v 0.868834 0.265730 1.224720
v 0.813857 0.381690 1.117477
v 0.766451 0.417261 0.983782
v 0.790939 0.408324 1.054806
v 0.713385 0.372814 0.816226
v 0.741543 0.409916 0.908808
v 0.692007 0.322613 0.737323
v 0.680394 0.266972 0.686429
v 0.880046 0.195344 1.264142
v 0.896761 0.116050 1.282933
v 0.901473 0.115194 1.276763
v 0.875321 0.196856 1.270403
v 0.827206 0.338841 1.195169
v 0.855471 0.270167 1.239263
v 0.822443 0.341008 1.199867
v 0.850727 0.272110 1.245047
v 0.801615 0.389037 1.129842
v 0.752312 0.428450 0.996652
v 0.775143 0.419150 1.068400
v 0.779784 0.415850 1.065745
v 0.756614 0.424893 0.994234
v 0.703153 0.381772 0.819320
v 0.698842 0.386031 0.818594
v 0.731760 0.418074 0.916501
v 0.669670 0.273962 0.687798
v 0.681422 0.331287 0.738831
v 0.665080 0.277306 0.687390
v 0.677069 0.335319 0.738026
v 0.773018 0.422605 1.070533
v 0.750842 0.431597 0.997742
v 0.696118 0.391205 0.816268
v 0.673396 0.340299 0.736198
v 0.660678 0.281321 0.686106
vn 0.9628 0.0346 0.2681
vn 0.9420 -0.1147 0.3153
vn 0.9609 -0.0935 0.2606
vn 0.9441 0.0218 0.3290
vn 0.9397 -0.2501 0.2333
vn 0.8774 -0.4215 0.2290
vn 0.8964 -0.4035 0.1834
vn 0.9192 -0.2764 0.2806
vn 0.8210 -0.5507 0.1503
vn 0.8266 -0.5562 0.0857
vn 0.7357 -0.6761 -0.0395
vn 0.6242 -0.7724 -0.1176
vn 0.6285 -0.7597 -0.1667
vn 0.7381 -0.6740 0.0316
vn 0.5088 -0.8098 -0.2921
vn 0.3386 -0.8568 -0.3889
vn 0.3937 -0.8228 -0.4099
vn 0.4783 -0.8362 -0.2685
vn 0.2800 -0.8029 -0.5262
vn 0.2149 -0.8368 -0.5036
vn 0.1695 -0.7354 -0.6561
vn 0.0995 -0.7776 -0.6209
vn 0.0574 -0.6001 -0.7979
vn -0.0443 -0.6414 -0.7659
vn 0.8938 -0.1220 0.4315
vn 0.8873 0.0301 0.4603
vn 0.8597 -0.4258 0.2822
vn 0.8862 -0.2844 0.3658
vn 0.8154 -0.5472 0.1890
vn 0.6261 -0.7761 -0.0760
vn 0.7348 -0.6752 0.0641
vn 0.3632 -0.8476 -0.3869
vn 0.4814 -0.8401 -0.2501
vn 0.0985 -0.7646 -0.6369
vn 0.2563 -0.8194 -0.5128
vn -0.0892 -0.6389 -0.7641
vn 0.8322 0.0359 0.5533
vn 0.8422 -0.0994 0.5299
vn 0.8336 -0.4167 0.3625
vn 0.8445 -0.2623 0.4670
vn 0.8022 -0.5409 0.2527
vn 0.6343 -0.7726 -0.0286
vn 0.7332 -0.6701 0.1157
vn 0.4232 -0.8280 -0.3678
vn 0.5101 -0.8356 -0.2039
vn 0.3394 -0.7891 -0.5120
vn 0.1496 -0.7303 -0.6665
vn -0.0645 -0.6124 -0.7879
vn 0.7756 0.0453 0.6296
vn 0.7843 -0.1092 0.6106
vn 0.7686 -0.4405 0.4639
vn 0.7980 -0.2759 0.5358
vn 0.8061 -0.3631 0.4672
vn 0.9483 -0.2871 0.1354
vn 0.8718 -0.4596 0.1696
vn 0.7494 -0.5791 0.3209
vn 0.8024 -0.5936 0.0621
vn 0.7910 -0.6023 -0.1075
vn 0.6992 -0.6989 0.1508
vn 0.6418 -0.7665 -0.0244
vn 0.8443 -0.4529 -0.2863
vn 0.6291 -0.6778 -0.3804
vn 0.6021 -0.7689 -0.2151
vn 0.8439 -0.3866 -0.3720
vn 0.3790 -0.6217 -0.6855
vn 0.5727 -0.6393 -0.5131
vn 0.7542 -0.4426 -0.4851
vn 0.5542 -0.5005 -0.6650
vn 0.2693 -0.4869 -0.8309
vn 0.1068 -0.5557 -0.8245
vn 0.9800 -0.1715 -0.1012
vn 0.9680 -0.2417 -0.0678
vn 0.9421 -0.3178 -0.1069
vn 0.9376 -0.3378 -0.0825
vn 0.9453 -0.3258 0.0145
vn 0.9293 -0.3550 -0.1014
vn 0.9102 -0.4103 -0.0558
vn 0.8874 -0.4331 -0.1576
vn 0.9070 -0.3836 -0.1737
vn 0.7927 -0.4778 -0.3786
vn 0.8429 -0.4677 -0.2661
vn 0.8551 -0.4839 -0.1862
vn 0.7574 -0.4851 -0.4370
vn 0.6740 -0.5223 -0.5224
vn 0.4580 -0.4871 -0.7436
vn 0.4729 -0.5382 -0.6977
vn 0.5926 -0.5277 -0.6086
vn 0.2538 -0.4363 -0.8633
vn 0.2231 -0.4873 -0.8443
vn 0.1001 -0.4191 -0.9024
vn 0.0892 -0.4543 -0.8864
vn 0.0710 -0.4446 -0.8929
vn -0.0853 -0.5026 -0.8603
vn -0.1854 -0.5287 -0.8283
vn -0.1995 -0.5364 -0.8201
vn -0.1059 -0.5442 -0.8322
vn 0.0018 -0.5003 -0.8658
vn 0.9573 0.1153 0.2650
vn 0.9381 0.1206 0.3247
vn 0.8832 0.1306 0.4504
vn 0.8220 0.1372 0.5527
vn 0.9754 0.1060 0.1931
vn 0.7743 0.1406 0.6170
vn 0.9610 0.1494 -0.2326
vn 0.9739 -0.0639 -0.2177
vn 0.9474 0.1943 0.2543
vn 0.8983 0.3424 0.2753
vn 0.9250 0.2172 0.3117
vn 0.9223 0.3137 0.2258
vn 0.8753 0.4511 0.1744
vn 0.7876 0.5991 0.1442
vn 0.8491 0.4822 0.2159
vn 0.8108 0.5761 0.1033
vn 0.7254 0.6882 -0.0129
vn 0.7178 0.6945 0.0501
vn 0.6280 0.7634 -0.1512
vn 0.5116 0.8246 -0.2414
vn 0.6268 0.7748 -0.0818
vn 0.5200 0.8040 -0.2886
vn 0.4018 0.8126 -0.4222
vn 0.2305 0.8164 -0.5295
vn 0.3674 0.8384 -0.4025
vn 0.2905 0.7862 -0.5454
vn 0.1824 0.7260 -0.6631
vn 0.1545 0.6793 -0.7174
vn 0.1112 0.7549 -0.6464
vn 0.0859 0.7182 -0.6905
vn 0.8463 0.3669 0.3863
vn 0.8675 0.2295 0.4414
vn 0.7674 0.6110 0.1946
vn 0.8125 0.5021 0.2961
vn 0.7109 0.6978 0.0876
vn 0.5105 0.8360 -0.2012
vn 0.6220 0.7814 -0.0504
vn 0.2565 0.8108 -0.5261
vn 0.3694 0.8460 -0.3845
vn 0.0551 0.7020 -0.7101
vn 0.1556 0.7417 -0.6524
vn 0.8125 0.2354 0.5333
vn 0.7973 0.3589 0.4853
vn 0.7404 0.6146 0.2723
vn 0.7724 0.4962 0.3964
vn 0.6963 0.7021 0.1492
vn 0.5169 0.8420 -0.1542
vn 0.6185 0.7858 0.0001
vn 0.3179 0.8041 -0.5024
vn 0.4499 0.8468 -0.2839
vn 0.2440 0.7239 -0.6453
vn 0.2371 0.6443 -0.7271
vn 0.7663 0.1827 0.6159
vn 0.7389 0.3976 0.5441
vn 0.6849 0.6119 0.3955
vn 0.7174 0.5041 0.4809
vn 0.7201 0.5284 0.4498
vn 0.7597 0.4656 0.4540
vn 0.6443 0.7391 0.1965
vn 0.6060 0.7659 -0.2149
vn 0.6131 0.7900 0.0026
vn 0.5803 0.8139 0.0298
vn 0.5248 0.8380 -0.1492
vn 0.5097 0.6905 -0.5133
vn 0.3961 0.5781 -0.7134
vn 0.4952 0.6092 -0.6193
vn 0.5211 0.5031 -0.6895
vn 0.6530 0.4585 -0.6028
vn 0.8023 0.5814 -0.1354
vn 0.7878 0.5881 -0.1831
vn 0.7677 0.6156 -0.1780
vn 0.6440 0.4167 -0.6416
vn 0.7634 0.2841 -0.5801
vn 0.7841 0.4190 0.4578
vn 0.6421 0.5588 -0.5248
vn 0.8671 0.2688 -0.4193
vn 0.8796 0.2963 -0.3721
vn 0.8590 0.2047 -0.4693
vn 0.5245 0.8272 -0.2016
vn 0.8452 0.1046 0.5241
vt 0.285995 0.098717
vt 0.271786 0.115735
vt 0.273299 0.097332
vt 0.285245 0.117135
vt 0.260485 0.096416
vt 0.242877 0.113938
vt 0.246274 0.095805
vt 0.258275 0.114729
vt 0.228466 0.113394
vt 0.233499 0.095387
vt 0.220805 0.094016
vt 0.201738 0.109523
vt 0.208495 0.091522
vt 0.214892 0.112000
vt 0.196235 0.087743
vt 0.173941 0.099655
vt 0.184490 0.082776
vt 0.188446 0.105662
vt 0.174141 0.077030
vt 0.162578 0.092677
vt 0.164658 0.071041
vt 0.152456 0.085441
vt 0.155143 0.064466
vt 0.142194 0.077912
vt 0.269746 0.134045
vt 0.284254 0.134163
vt 0.239285 0.133609
vt 0.255293 0.133991
vt 0.223750 0.132926
vt 0.195825 0.128669
vt 0.209590 0.131380
vt 0.165691 0.117662
vt 0.181661 0.124323
vt 0.139742 0.102455
vt 0.151339 0.109947
vt 0.128256 0.094659
vt 0.283243 0.149175
vt 0.267749 0.151451
vt 0.236267 0.154566
vt 0.252451 0.153452
vt 0.220212 0.153119
vt 0.192454 0.147087
vt 0.206650 0.150722
vt 0.158801 0.135168
vt 0.177605 0.142585
vt 0.141559 0.127551
vt 0.128663 0.120106
vt 0.115887 0.112177
vt 0.283027 0.152500
vt 0.267298 0.155163
vt 0.235374 0.158684
vt 0.251752 0.157464
vt 0.251506 0.158959
vt 0.235023 0.160095
vt 0.218559 0.158348
vt 0.219192 0.157022
vt 0.204988 0.155739
vt 0.191047 0.151971
vt 0.205641 0.154418
vt 0.191662 0.150644
vt 0.175730 0.147299
vt 0.157086 0.138594
vt 0.176506 0.146034
vt 0.156103 0.139960
vt 0.126505 0.123873
vt 0.139574 0.131211
vt 0.138607 0.132723
vt 0.125520 0.125504
vt 0.112424 0.117801
vt 0.113498 0.116045
vt 0.251141 0.160603
vt 0.234660 0.161690
vt 0.216473 0.163662
vt 0.233311 0.165370
vt 0.218176 0.159501
vt 0.188344 0.157358
vt 0.204680 0.156627
vt 0.202523 0.161113
vt 0.190785 0.152684
vt 0.155167 0.141186
vt 0.175286 0.148038
vt 0.172254 0.152561
vt 0.152331 0.145396
vt 0.137671 0.134244
vt 0.122015 0.131273
vt 0.124535 0.127182
vt 0.135164 0.138321
vt 0.108617 0.123949
vt 0.111341 0.119625
vt 0.095034 0.116204
vt 0.098424 0.111437
vt 0.099698 0.109505
vt 0.100984 0.107602
vt 0.103733 0.103633
vt 0.117264 0.086338
vt 0.132164 0.070173
vt 0.146188 0.057256
vt 0.297554 0.098649
vt 0.297553 0.117418
vt 0.297553 0.132964
vt 0.297553 0.146010
vt 0.297553 0.150384
vt 0.297553 0.148969
vt 0.297553 0.152243
vt 0.282903 0.153981
vt 0.309112 0.098717
vt 0.323321 0.115736
vt 0.309862 0.117136
vt 0.321809 0.097334
vt 0.334623 0.096418
vt 0.352230 0.113940
vt 0.336832 0.114730
vt 0.348835 0.095807
vt 0.361610 0.095390
vt 0.366642 0.113397
vt 0.374304 0.094019
vt 0.393370 0.109527
vt 0.380216 0.112003
vt 0.386614 0.091525
vt 0.398875 0.087748
vt 0.421168 0.099658
vt 0.406662 0.105666
vt 0.410620 0.082780
vt 0.420970 0.077035
vt 0.430453 0.071045
vt 0.432532 0.092681
vt 0.442654 0.085445
vt 0.325360 0.134045
vt 0.310851 0.134164
vt 0.355822 0.133611
vt 0.339813 0.133992
vt 0.371356 0.132928
vt 0.399282 0.128672
vt 0.385517 0.131383
vt 0.429417 0.117665
vt 0.413447 0.124326
vt 0.455367 0.102458
vt 0.443770 0.109951
vt 0.311863 0.149176
vt 0.327357 0.151452
vt 0.358839 0.154567
vt 0.342655 0.153452
vt 0.374894 0.153120
vt 0.402653 0.147089
vt 0.388456 0.150724
vt 0.436307 0.135171
vt 0.417502 0.142587
vt 0.453549 0.127554
vt 0.466445 0.120108
vt 0.312078 0.152501
vt 0.327808 0.155163
vt 0.359732 0.158686
vt 0.343353 0.157465
vt 0.360083 0.160096
vt 0.343599 0.158960
vt 0.375915 0.157023
vt 0.404060 0.151973
vt 0.390119 0.155740
vt 0.389465 0.154419
vt 0.403445 0.150646
vt 0.438022 0.138597
vt 0.468603 0.123875
vt 0.455534 0.131213
vt 0.469589 0.125507
vt 0.456501 0.132725
vt 0.404322 0.152686
vt 0.390426 0.156629
vt 0.470573 0.127184
vt 0.457437 0.134246
vt 0.327999 0.156674
vt 0.439005 0.139962
vt 0.439940 0.141188
vt 0.418601 0.146036
vt 0.312202 0.153981
s 1
usemtl mtl_bee41.001
f 11/1/1 12/2/2 13/3/3
f 12/2/2 11/1/1 14/4/4
f 15/5/5 16/6/6 17/7/7
f 16/6/6 15/5/5 18/8/8
f 19/9/9 20/10/10 17/7/7
f 17/7/7 16/6/6 19/9/9
f 21/11/11 22/12/12 23/13/13
f 22/12/12 21/11/11 24/14/14
f 25/15/15 26/16/16 27/17/17
f 26/16/16 25/15/15 28/18/18
f 29/19/19 30/20/20 31/21/21
f 30/20/20 32/22/22 31/21/21
f 32/22/22 33/23/23 31/21/21
f 33/23/23 32/22/22 34/24/24
f 14/4/4 37/25/25 12/2/2
f 37/25/25 14/4/4 38/26/26
f 18/8/8 39/27/27 16/6/6
f 39/27/27 18/8/8 40/28/28
f 39/27/27 41/29/29 16/6/6
f 16/6/6 41/29/29 19/9/9
f 24/14/14 42/30/30 22/12/12
f 42/30/30 24/14/14 43/31/31
f 28/18/18 44/32/32 26/16/16
f 44/32/32 28/18/18 45/33/33
f 30/20/20 46/34/34 32/22/22
f 46/34/34 30/20/20 47/35/35
f 46/34/34 34/24/24 32/22/22
f 34/24/24 46/34/34 48/36/36
f 50/37/37 37/25/25 38/26/26
f 37/25/25 50/37/37 51/38/38
f 40/28/28 52/39/39 39/27/27
f 52/39/39 40/28/28 53/40/40
f 39/27/27 52/39/39 54/41/41
f 39/27/27 54/41/41 41/29/29
f 43/31/31 55/42/42 42/30/30
f 55/42/42 43/31/31 56/43/43
f 45/33/33 57/44/44 44/32/32
f 57/44/44 45/33/33 58/45/45
f 47/35/35 59/46/46 46/34/34
f 59/46/46 60/47/47 46/34/34
f 60/47/47 48/36/36 46/34/34
f 48/36/36 60/47/47 61/48/48
f 51/38/38 65/49/49 63/50/50
f 65/49/49 51/38/38 50/37/37
f 53/40/40 66/51/51 52/39/39
f 66/51/51 53/40/40 67/52/52
f 68/53/53 69/54/54 67/52/52
f 67/52/52 69/54/54 66/51/51
f 69/54/54 70/55/55 66/51/51
f 66/51/51 70/55/55 71/56/56
f 52/39/39 71/56/56 54/41/41
f 71/56/56 52/39/39 66/51/51
f 72/57/57 73/58/58 74/59/59
f 74/59/59 73/58/58 75/60/60
f 56/43/43 75/60/60 55/42/42
f 75/60/60 56/43/43 74/59/59
f 76/61/61 77/62/62 78/63/63
f 77/62/62 76/61/61 79/64/64
f 58/45/45 77/62/62 57/44/44
f 77/62/62 58/45/45 78/63/63
f 80/65/65 59/46/46 81/66/66
f 59/46/46 80/65/65 60/47/47
f 82/67/67 83/68/68 81/66/66
f 81/66/66 83/68/68 80/65/65
f 83/68/68 84/69/69 80/65/65
f 80/65/65 84/69/69 85/70/70
f 60/47/47 85/70/70 61/48/48
f 85/70/70 60/47/47 80/65/65
f 69/54/54 89/71/71 88/72/72
f 2/73/73 88/72/72 1/74/74
f 88/72/72 2/73/73 90/75/75
f 70/55/55 69/54/54 90/75/75
f 88/72/72 90/75/75 69/54/54
f 4/76/76 91/77/77 3/78/78
f 91/77/77 4/76/76 92/79/79
f 73/58/58 72/57/57 92/79/79
f 91/77/77 92/79/79 72/57/57
f 93/80/80 94/81/81 5/82/82
f 5/82/82 6/83/83 93/80/80
f 76/61/61 93/80/80 79/64/64
f 93/80/80 76/61/61 94/81/81
f 95/84/84 7/85/85 96/86/86
f 7/85/85 95/84/84 8/87/87
f 95/84/84 96/86/86 82/67/67
f 96/86/86 83/68/68 82/67/67
f 96/86/86 9/88/88 97/89/89
f 9/88/88 96/86/86 7/85/85
f 84/69/69 83/68/68 97/89/89
f 96/86/86 97/89/89 83/68/68
f 97/89/89 10/90/90 98/91/91
f 10/90/90 97/89/89 9/88/88
f 87/92/92 84/69/69 98/91/91
f 97/89/89 98/91/91 84/69/69
f 86/93/93 61/48/48 85/70/70
f 61/48/48 86/93/93 62/94/94
f 87/92/92 85/70/70 84/69/69
f 85/70/70 87/92/92 86/93/93
f 61/48/48 49/95/95 48/36/36
f 49/95/95 61/48/48 62/94/94
f 48/36/36 35/96/96 34/24/24
f 35/96/96 48/36/36 49/95/95
f 34/24/24 36/97/97 33/23/23
f 36/97/97 34/24/24 35/96/96
f 13/3/3 12/2/2 18/8/8
f 13/3/3 18/8/8 15/5/5
f 12/2/2 37/25/25 40/28/28
f 12/2/2 40/28/28 18/8/8
f 37/25/25 51/38/38 53/40/40
f 37/25/25 53/40/40 40/28/28
f 51/38/38 67/52/52 53/40/40
f 67/52/52 51/38/38 63/50/50
f 72/57/57 70/55/55 91/77/77
f 90/75/75 91/77/77 70/55/55
f 91/77/77 90/75/75 3/78/78
f 2/73/73 3/78/78 90/75/75
f 71/56/56 74/59/59 54/41/41
f 54/41/41 74/59/59 56/43/43
f 70/55/55 72/57/57 71/56/56
f 71/56/56 72/57/57 74/59/59
f 41/29/29 56/43/43 43/31/31
f 56/43/43 41/29/29 54/41/41
f 19/9/9 43/31/31 24/14/14
f 43/31/31 19/9/9 41/29/29
f 20/10/10 24/14/14 21/11/11
f 24/14/14 20/10/10 19/9/9
f 27/17/17 30/20/20 29/19/19
f 30/20/20 27/17/17 26/16/16
f 26/16/16 47/35/35 30/20/20
f 47/35/35 26/16/16 44/32/32
f 44/32/32 59/46/46 47/35/35
f 59/46/46 44/32/32 57/44/44
f 81/66/66 77/62/62 79/64/64
f 79/64/64 82/67/67 81/66/66
f 59/46/46 57/44/44 77/62/62
f 77/62/62 81/66/66 59/46/46
f 6/83/83 95/84/84 93/80/80
f 95/84/84 6/83/83 8/87/87
f 79/64/64 95/84/84 82/67/67
f 95/84/84 79/64/64 93/80/80
f 92/79/79 5/82/82 94/81/81
f 73/58/58 94/81/81 76/61/61
f 92/79/79 94/81/81 73/58/58
f 75/60/60 78/63/63 55/42/42
f 55/42/42 78/63/63 58/45/45
f 73/58/58 78/63/63 75/60/60
f 78/63/63 73/58/58 76/61/61
f 55/42/42 58/45/45 42/30/30
f 42/30/30 58/45/45 45/33/33
f 42/30/30 45/33/33 22/12/12
f 22/12/12 45/33/33 28/18/18
f 23/13/13 22/12/12 28/18/18
f 23/13/13 28/18/18 25/15/15
f 14/4/4 11/1/1 99/98/98
f 99/98/98 100/99/99 14/4/4
f 14/4/4 101/100/100 38/26/26
f 101/100/100 14/4/4 100/99/99
f 38/26/26 102/101/101 50/37/37
f 102/101/101 38/26/26 101/100/100
f 103/102/102 65/49/49 104/103/103
f 104/103/103 65/49/49 50/37/37
f 104/103/103 50/37/37 102/101/101
f 105/104/104 64/105/105 103/102/102
f 106/106/106 107/107/107 108/108/108
f 107/107/107 106/106/106 109/109/109
f 110/110/110 111/111/111 112/112/112
f 111/111/111 110/110/110 113/113/113
f 114/114/114 115/115/115 113/113/113
f 113/113/113 115/115/115 111/111/111
f 116/116/116 117/117/117 118/118/118
f 117/117/117 116/116/116 119/119/119
f 120/120/120 121/121/121 122/122/122
f 121/121/121 120/120/120 123/123/123
f 124/124/124 125/125/125 126/126/126
f 126/126/126 125/125/125 127/127/127
f 108/108/108 128/128/128 129/129/129
f 128/128/128 108/108/108 107/107/107
f 112/112/112 130/130/130 131/131/131
f 130/130/130 112/112/112 111/111/111
f 130/130/130 111/111/111 132/132/132
f 111/111/111 115/115/115 132/132/132
f 118/118/118 133/133/133 134/134/134
f 133/133/133 118/118/118 117/117/117
f 122/122/122 135/135/135 136/136/136
f 135/135/135 122/122/122 121/121/121
f 126/126/126 137/137/137 138/138/138
f 137/137/137 126/126/126 127/127/127
f 129/129/129 128/128/128 139/139/139
f 128/128/128 140/140/140 139/139/139
f 131/131/131 141/141/141 142/142/142
f 141/141/141 131/131/131 130/130/130
f 132/132/132 143/143/143 130/130/130
f 141/141/141 130/130/130 143/143/143
f 134/134/134 144/144/144 145/145/145
f 144/144/144 134/134/134 133/133/133
f 136/136/136 146/146/146 147/147/147
f 146/146/146 136/136/136 135/135/135
f 138/138/138 137/137/137 148/148/148
f 148/148/148 137/137/137 149/149/149
f 152/150/150 140/140/140 150/151/151
f 140/140/140 152/150/150 139/139/139
f 142/142/142 154/152/152 155/153/153
f 154/152/152 142/142/142 141/141/141
f 156/154/154 157/155/155 155/153/153
f 155/153/153 154/152/152 156/154/154
f 141/141/141 158/156/156 154/152/152
f 158/156/156 141/141/141 143/143/143
f 159/157/157 160/158/158 161/159/159
f 161/159/159 162/160/160 159/157/157
f 145/145/145 162/160/160 161/159/159
f 162/160/160 145/145/145 144/144/144
f 163/161/161 147/147/147 146/146/146
f 148/148/148 166/162/162 167/163/163
f 166/162/162 148/148/148 149/149/149
f 168/164/164 169/165/165 167/163/163
f 167/163/163 166/162/162 168/164/164
f 171/166/166 170/167/167 160/158/168
f 169/165/165 174/168/169 173/169/170
f 174/168/169 169/165/165 168/164/164
f 110/110/110 112/112/112 109/109/109
f 107/107/107 109/109/109 112/112/112
f 112/112/112 131/131/131 107/107/107
f 128/128/128 107/107/107 131/131/131
f 131/131/131 142/142/142 128/128/128
f 128/128/128 142/142/142 140/140/140
f 153/170/171 155/153/153 157/155/155
f 155/153/153 153/170/171 150/151/151
f 140/140/140 155/153/153 150/151/151
f 155/153/153 140/140/140 142/142/142
f 161/159/159 158/156/156 143/143/143
f 143/143/143 145/145/145 161/159/159
f 158/156/156 161/159/159 160/158/158
f 132/132/132 145/145/145 143/143/143
f 145/145/145 132/132/132 134/134/134
f 115/115/115 134/134/134 132/132/132
f 134/134/134 115/115/115 118/118/118
f 114/114/114 118/118/118 115/115/115
f 118/118/118 114/114/114 116/116/116
f 123/123/123 126/126/126 121/121/121
f 126/126/126 123/123/123 124/124/124
f 121/121/121 138/138/138 135/135/135
f 138/138/138 121/121/121 126/126/126
f 135/135/135 148/148/148 146/146/146
f 148/148/148 135/135/135 138/138/138
f 163/161/161 167/163/163 164/171/172
f 169/165/165 164/171/172 167/163/163
f 146/146/146 148/148/148 163/161/161
f 167/163/163 163/161/161 148/148/148
f 164/171/173 173/169/174 172/172/175
f 165/173/176 162/160/160 144/144/144
f 144/144/144 147/147/147 165/173/176
f 165/173/176 159/157/157 162/160/160
f 144/144/144 133/133/133 147/147/147
f 133/133/133 136/136/136 147/147/147
f 133/133/133 117/117/117 136/136/136
f 117/117/117 122/122/122 136/136/136
f 120/120/120 122/122/122 119/119/119
f 117/117/117 119/119/119 122/122/122
f 106/106/106 108/108/108 99/98/98
f 99/98/98 108/108/108 100/99/99
f 108/108/108 101/100/100 100/99/99
f 101/100/100 108/108/108 129/129/129
f 129/129/129 102/101/101 101/100/100
f 102/101/101 129/129/129 139/139/139
f 103/102/102 152/150/150 151/174/177
f 152/150/150 103/102/102 104/103/103
f 102/101/101 139/139/139 104/103/103
f 152/150/150 104/103/103 139/139/139
f 151/174/177 105/104/104 103/102/102
