# Blender 5.0.0
# www.blender.org
mtllib abdomen_7_body.mtl
o 1645859359680_0.011
v 1.034210 -0.024942 1.024953
v 1.035597 -0.081349 1.014696
v 1.030704 -0.135423 0.999641
v 1.017083 -0.189033 0.976624
v 0.998695 -0.229207 0.950038
v 0.976427 -0.258055 0.914088
v 0.952579 -0.274119 0.871082
v 0.927987 -0.278235 0.821393
v 0.903841 -0.268784 0.768852
v 0.882963 -0.249172 0.719387
v 0.863878 -0.221681 0.675687
v 0.844818 -0.183849 0.637544
v 0.827804 -0.136532 0.610618
v 1.061541 -0.023281 0.920589
v 1.060926 -0.071322 0.915307
v 1.054901 -0.117457 0.906012
v 1.041172 -0.163114 0.889962
v 1.023242 -0.196855 0.869230
v 1.003679 -0.219152 0.839857
v 0.983343 -0.231167 0.808132
v 0.959227 -0.235795 0.772551
v 0.937170 -0.229194 0.730163
v 0.899899 -0.190428 0.653916
v 0.917883 -0.213606 0.689874
v 0.881417 -0.157792 0.622997
v 0.864577 -0.117230 0.601303
v 1.076447 -0.024542 0.815178
v 1.073311 -0.066906 0.814199
v 1.064524 -0.107053 0.809336
v 1.046104 -0.149842 0.800756
v 1.026127 -0.176311 0.780047
v 1.004828 -0.192215 0.757596
v 0.985058 -0.195058 0.726294
v 0.964089 -0.186533 0.686109
v 0.942040 -0.165037 0.645130
v 0.925657 -0.134970 0.613914
v 0.911384 -0.099875 0.594437
v 1.078847 -0.023774 0.734487
v 1.075399 -0.058286 0.740620
v 1.067248 -0.091091 0.741288
v 1.052332 -0.123076 0.734124
v 1.020929 -0.154172 0.705780
v 1.037054 -0.142797 0.722463
v 0.989081 -0.147172 0.653408
v 1.005890 -0.156123 0.684550
v 0.974773 -0.127293 0.622625
v 0.963752 -0.103700 0.600832
v 0.954210 -0.076165 0.586933
v 1.078765 0.007117 0.725871
v 1.075926 0.013696 0.812161
v 1.059402 0.020482 0.912993
v 1.029625 0.026945 1.021223
v 1.025121 0.078470 1.012802
v 1.016862 0.131787 0.989652
v 1.002868 0.181255 0.962430
v 0.980435 0.227869 0.927635
v 0.955667 0.260260 0.892524
v 0.929158 0.279693 0.850900
v 0.903393 0.285423 0.805333
v 0.879054 0.278429 0.755983
v 0.857545 0.257894 0.706965
v 0.840981 0.228420 0.663268
v 0.827477 0.192431 0.627027
v 1.053834 0.064394 0.910286
v 1.044979 0.110097 0.893990
v 1.031162 0.152602 0.874279
v 1.009906 0.192565 0.848168
v 0.986627 0.219681 0.820284
v 0.963833 0.234141 0.786593
v 0.942087 0.238160 0.752984
v 0.917940 0.233907 0.717360
v 0.897862 0.217989 0.677616
v 0.882049 0.194045 0.641972
v 0.868780 0.163589 0.612318
v 1.069777 0.051324 0.806264
v 1.059356 0.091845 0.795546
v 1.043787 0.128857 0.781615
v 1.018291 0.166562 0.763578
v 0.994247 0.186352 0.737433
v 0.970752 0.195446 0.712045
v 0.951146 0.190710 0.680964
v 0.932447 0.173410 0.643814
v 0.914939 0.143261 0.608902
v 0.904382 0.107068 0.585473
v 1.073379 0.038426 0.727179
v 1.063914 0.072390 0.725265
v 1.050168 0.103219 0.718456
v 1.029987 0.131134 0.704253
v 0.993955 0.152696 0.669721
v 1.011632 0.146408 0.688480
v 0.964407 0.133532 0.620424
v 0.979043 0.149287 0.648662
v 0.954129 0.107567 0.595028
v 0.947620 0.079832 0.579266
vn 0.9789 0.0263 0.2028
vn 0.9609 -0.0935 0.2605
vn 0.9788 -0.0964 0.1805
vn 0.9628 0.0346 0.2681
vn 0.9599 -0.2427 0.1404
vn 0.8964 -0.4035 0.1834
vn 0.9158 -0.3948 0.0738
vn 0.9397 -0.2501 0.2333
vn 0.8266 -0.5562 0.0856
vn 0.8394 -0.5431 -0.0221
vn 0.7521 -0.6477 -0.1220
vn 0.6285 -0.7597 -0.1667
vn 0.6457 -0.7265 -0.2350
vn 0.7357 -0.6761 -0.0395
vn 0.5453 -0.7655 -0.3416
vn 0.3937 -0.8228 -0.4099
vn 0.4510 -0.7785 -0.4366
vn 0.5088 -0.8098 -0.2921
vn 0.2800 -0.8029 -0.5262
vn 0.2153 -0.6904 -0.6907
vn 0.3424 -0.7588 -0.5541
vn 0.1695 -0.7354 -0.6561
vn 0.0859 -0.5580 -0.8254
vn 0.0574 -0.6001 -0.7979
vn 0.9954 -0.0210 0.0937
vn 0.9880 -0.1407 0.0642
vn 0.9530 -0.3029 0.0094
vn 0.8864 -0.4586 -0.0638
vn 0.7872 -0.5959 -0.1589
vn 0.6681 -0.6930 -0.2709
vn 0.5589 -0.7401 -0.3740
vn 0.4474 -0.7375 -0.5059
vn 0.3193 -0.6859 -0.6539
vn 0.1482 -0.5588 -0.8159
vn 0.9988 -0.0309 0.0385
vn 0.9887 -0.1471 0.0273
vn 0.8792 -0.4687 -0.0857
vn 0.9480 -0.3177 -0.0178
vn 0.7689 -0.6058 -0.2043
vn 0.6554 -0.6911 -0.3046
vn 0.5371 -0.7241 -0.4326
vn 0.3874 -0.7253 -0.5691
vn 0.2623 -0.6543 -0.7093
vn 0.1219 -0.5116 -0.8506
vn 0.0275 -0.4707 -0.8818
vn 0.0019 -0.5003 -0.8658
vn 0.0636 -0.4550 -0.8882
vn 0.0722 -0.4340 -0.8980
vn 0.9902 0.0988 0.0992
vn 0.9953 0.0919 0.0302
vn 0.9740 0.1090 0.1985
vn 0.9573 0.1153 0.2650
vn 0.9634 0.1902 0.1890
vn 0.9223 0.3137 0.2257
vn 0.9474 0.1943 0.2543
vn 0.9418 0.3019 0.1476
vn 0.8998 0.4277 0.0860
vn 0.8108 0.5761 0.1033
vn 0.8753 0.4511 0.1744
vn 0.8359 0.5489 -0.0010
vn 0.7254 0.6882 -0.0129
vn 0.7452 0.6568 -0.1152
vn 0.6518 0.7233 -0.2279
vn 0.5200 0.8040 -0.2886
vn 0.6280 0.7634 -0.1512
vn 0.5440 0.7618 -0.3517
vn 0.4453 0.7649 -0.4654
vn 0.2905 0.7862 -0.5454
vn 0.4018 0.8126 -0.4222
vn 0.3542 0.7452 -0.5650
vn 0.1824 0.7260 -0.6631
vn 0.2517 0.6849 -0.6838
vn 0.1947 0.6186 -0.7612
vn 0.1546 0.6793 -0.7174
vn 0.9741 0.2134 0.0748
vn 0.9472 0.3193 0.0276
vn 0.8890 0.4551 -0.0501
vn 0.8047 0.5760 -0.1437
vn 0.6946 0.6720 -0.2567
vn 0.5718 0.7258 -0.3825
vn 0.4632 0.7356 -0.4942
vn 0.3580 0.6896 -0.6296
vn 0.2403 0.5857 -0.7741
vn 0.1597 0.4952 -0.8540
vn 0.9774 0.2107 0.0178
vn 0.9495 0.3132 -0.0164
vn 0.8838 0.4612 -0.0793
vn 0.8052 0.5675 -0.1718
vn 0.6820 0.6685 -0.2965
vn 0.5686 0.7108 -0.4141
vn 0.4466 0.7087 -0.5462
vn 0.2985 0.6504 -0.6984
vn 0.1605 0.4714 -0.8672
vn 0.1900 0.5412 -0.8191
vt 0.286911 0.079467
vt 0.273299 0.097332
vt 0.275164 0.078906
vt 0.285995 0.098717
vt 0.263324 0.078677
vt 0.246274 0.095805
vt 0.250203 0.078596
vt 0.260485 0.096416
vt 0.233499 0.095387
vt 0.238363 0.078333
vt 0.227291 0.076797
vt 0.208495 0.091522
vt 0.216996 0.074662
vt 0.220805 0.094016
vt 0.205727 0.072282
vt 0.184490 0.082776
vt 0.195118 0.068039
vt 0.196235 0.087743
vt 0.174141 0.077030
vt 0.177141 0.057901
vt 0.185779 0.063116
vt 0.164658 0.071041
vt 0.168347 0.052191
vt 0.155143 0.064466
vt 0.286989 0.060176
vt 0.275124 0.060518
vt 0.263148 0.061089
vt 0.248578 0.062529
vt 0.236260 0.061858
vt 0.225086 0.061132
vt 0.215223 0.058232
vt 0.204829 0.053375
vt 0.194153 0.047407
vt 0.186204 0.041030
vt 0.287419 0.045229
vt 0.276136 0.046708
vt 0.251999 0.048748
vt 0.264841 0.047954
vt 0.241898 0.048793
vt 0.232549 0.047958
vt 0.224506 0.045743
vt 0.215715 0.041310
vt 0.208118 0.035726
vt 0.202543 0.030458
vt 0.160053 0.045941
vt 0.146188 0.057256
vt 0.179379 0.034750
vt 0.197964 0.025115
vt 0.297556 0.060078
vt 0.297557 0.044000
vt 0.297555 0.078647
vt 0.297554 0.098649
vt 0.308199 0.079467
vt 0.321809 0.097334
vt 0.309112 0.098717
vt 0.319945 0.078907
vt 0.331786 0.078679
vt 0.348835 0.095807
vt 0.334623 0.096418
vt 0.344906 0.078599
vt 0.361610 0.095390
vt 0.356747 0.078336
vt 0.367819 0.076800
vt 0.386614 0.091525
vt 0.374304 0.094019
vt 0.378114 0.074666
vt 0.389384 0.072286
vt 0.410620 0.082780
vt 0.398875 0.087748
vt 0.399993 0.068043
vt 0.420970 0.077035
vt 0.409332 0.063120
vt 0.417971 0.057906
vt 0.430453 0.071045
vt 0.308123 0.060177
vt 0.319987 0.060519
vt 0.331964 0.061091
vt 0.346533 0.062532
vt 0.358852 0.061862
vt 0.370026 0.061136
vt 0.379890 0.058237
vt 0.390284 0.053380
vt 0.400961 0.047412
vt 0.408910 0.041035
vt 0.307695 0.045230
vt 0.318978 0.046710
vt 0.330272 0.047956
vt 0.343115 0.048751
vt 0.353216 0.048797
vt 0.362565 0.047962
vt 0.370608 0.045747
vt 0.379400 0.041314
vt 0.392573 0.030463
vt 0.386997 0.035731
s 1
usemtl mtl_bee41.001
f 14/1/1 2/2/2 15/3/3
f 2/2/2 14/1/1 1/4/4
f 16/5/5 4/6/6 17/7/7
f 4/6/6 16/5/5 3/8/8
f 17/7/7 5/9/9 18/10/10
f 5/9/9 17/7/7 4/6/6
f 19/11/11 7/12/12 20/13/13
f 7/12/12 19/11/11 6/14/14
f 21/15/15 9/16/16 22/17/17
f 9/16/16 21/15/15 8/18/18
f 10/19/19 23/20/20 24/21/21
f 23/20/20 10/19/19 11/22/22
f 11/22/22 25/23/23 23/20/20
f 25/23/23 11/22/22 12/24/24
f 27/25/25 15/3/3 28/26/26
f 15/3/3 27/25/25 14/1/1
f 29/27/27 17/7/7 30/28/28
f 17/7/7 29/27/27 16/5/5
f 30/28/28 17/7/7 18/10/10
f 31/29/29 20/13/13 32/30/30
f 20/13/13 31/29/29 19/11/11
f 33/31/31 22/17/17 34/32/32
f 22/17/17 33/31/31 21/15/15
f 24/21/21 23/20/20 35/33/33
f 23/20/20 36/34/34 35/33/33
f 36/34/34 23/20/20 25/23/23
f 38/35/35 27/25/25 39/36/36
f 39/36/36 27/25/25 28/26/26
f 29/27/27 41/37/37 40/38/38
f 41/37/37 29/27/27 30/28/28
f 43/39/39 32/30/30 42/40/40
f 32/30/30 43/39/39 31/29/29
f 45/41/41 34/32/32 44/42/42
f 34/32/32 45/41/41 33/31/31
f 46/43/43 35/33/33 36/34/34
f 46/43/43 36/34/34 47/44/44
f 12/24/24 26/45/45 25/23/23
f 26/45/45 12/24/24 13/46/46
f 25/23/23 37/47/47 36/34/34
f 37/47/47 25/23/23 26/45/45
f 37/47/47 47/44/44 36/34/34
f 47/44/44 37/47/47 48/48/48
f 28/26/26 40/38/38 39/36/36
f 40/38/38 28/26/26 29/27/27
f 16/5/5 28/26/26 15/3/3
f 28/26/26 16/5/5 29/27/27
f 15/3/3 2/2/2 3/8/8
f 15/3/3 3/8/8 16/5/5
f 18/10/10 6/14/14 19/11/11
f 6/14/14 18/10/10 5/9/9
f 30/28/28 19/11/11 31/29/29
f 19/11/11 30/28/28 18/10/10
f 41/37/37 31/29/29 43/39/39
f 31/29/29 41/37/37 30/28/28
f 44/42/42 34/32/32 46/43/43
f 34/32/32 35/33/33 46/43/43
f 34/32/32 24/21/21 35/33/33
f 24/21/21 34/32/32 22/17/17
f 22/17/17 9/16/16 24/21/21
f 9/16/16 10/19/19 24/21/21
f 20/13/13 7/12/12 8/18/18
f 20/13/13 8/18/18 21/15/15
f 32/30/30 20/13/13 21/15/15
f 32/30/30 21/15/15 33/31/31
f 42/40/40 32/30/30 33/31/31
f 42/40/40 33/31/31 45/41/41
f 50/49/49 38/35/35 49/50/50
f 38/35/35 50/49/49 27/25/25
f 27/25/25 51/51/51 14/1/1
f 51/51/51 27/25/25 50/49/49
f 14/1/1 52/52/52 1/4/4
f 52/52/52 14/1/1 51/51/51
f 64/53/53 54/54/54 53/55/55
f 54/54/54 64/53/53 65/56/56
f 66/57/57 56/58/58 55/59/59
f 56/58/58 66/57/57 67/60/60
f 67/60/60 57/61/61 56/58/58
f 57/61/61 67/60/60 68/62/62
f 69/63/63 59/64/64 58/65/65
f 59/64/64 69/63/63 70/66/66
f 71/67/67 61/68/68 60/69/69
f 61/68/68 71/67/67 72/70/70
f 62/71/71 73/72/72 74/73/73
f 62/71/71 74/73/73 63/74/74
f 75/75/75 65/56/56 64/53/53
f 65/56/56 75/75/75 76/76/76
f 77/77/77 67/60/60 66/57/57
f 67/60/60 77/77/77 78/78/78
f 78/78/78 68/62/62 67/60/60
f 79/79/79 70/66/66 69/63/63
f 70/66/66 79/79/79 80/80/80
f 81/81/81 72/70/70 71/67/67
f 72/70/70 81/81/81 82/82/82
f 73/72/72 83/83/83 74/73/73
f 84/84/84 74/73/73 83/83/83
f 75/75/75 85/85/85 86/86/86
f 86/86/86 76/76/76 75/75/75
f 77/77/77 87/87/87 88/88/88
f 88/88/88 78/78/78 77/77/77
f 80/80/80 90/89/89 89/90/90
f 90/89/89 80/80/80 79/79/79
f 92/91/91 82/82/82 81/81/81
f 82/82/82 92/91/91 91/92/92
f 94/93/93 84/84/84 93/94/94
f 83/83/83 93/94/94 84/84/84
f 87/87/87 76/76/76 86/86/86
f 76/76/76 87/87/87 77/77/77
f 66/57/57 76/76/76 77/77/77
f 76/76/76 66/57/57 65/56/56
f 65/56/56 55/59/59 54/54/54
f 55/59/59 65/56/56 66/57/57
f 68/62/62 69/63/63 58/65/65
f 58/65/65 57/61/61 68/62/62
f 78/78/78 69/63/63 68/62/62
f 69/63/63 78/78/78 79/79/79
f 79/79/79 88/88/88 90/89/89
f 88/88/88 79/79/79 78/78/78
f 93/94/94 82/82/82 91/92/92
f 82/82/82 93/94/94 83/83/83
f 82/82/82 73/72/72 72/70/70
f 73/72/72 82/82/82 83/83/83
f 73/72/72 61/68/68 72/70/70
f 61/68/68 73/72/72 62/71/71
f 70/66/66 60/69/69 59/64/64
f 60/69/69 70/66/66 71/67/67
f 81/81/81 71/67/67 80/80/80
f 80/80/80 71/67/67 70/66/66
f 92/91/91 81/81/81 89/90/90
f 89/90/90 81/81/81 80/80/80
f 85/85/85 50/49/49 49/50/50
f 50/49/49 85/85/85 75/75/75
f 75/75/75 51/51/51 50/49/49
f 51/51/51 75/75/75 64/53/53
f 64/53/53 52/52/52 51/51/51
f 52/52/52 64/53/53 53/55/55
