# Blender 5.0.0
# www.blender.org
mtllib abdomen_3_body.mtl
o 1645859359680_0.015
v 0.298263 -0.434881 1.549971
v 0.374945 -0.447448 1.539681
v 0.311486 -0.374397 1.613655
v 0.392892 -0.391499 1.605371
v 0.271030 -0.484103 1.360057
v 0.356122 -0.489024 1.441855
v 0.287109 -0.471767 1.462666
v 0.336211 -0.506217 1.327386
v 0.224900 -0.444927 1.099817
v 0.312778 -0.502038 1.177564
v 0.248762 -0.476417 1.218380
v 0.287183 -0.471445 1.065078
v 0.185939 -0.343001 0.939812
v 0.263779 -0.422532 0.975583
v 0.203963 -0.398618 1.009382
v 0.242637 -0.361908 0.906608
v 0.222840 -0.291027 0.850232
v 0.170923 -0.276236 0.886708
v 0.327970 -0.292988 1.653474
v 0.412631 -0.306583 1.648781
v 0.343624 -0.084435 1.683106
v 0.339351 -0.192582 1.675393
v 0.423721 -0.200606 1.671867
v 0.426341 -0.085664 1.679152
v 0.159684 -0.203666 0.851314
v 0.207960 -0.214410 0.813946
v 0.506729 -0.087568 1.664662
v 0.504328 -0.208830 1.657084
v 0.585311 -0.213011 1.625092
v 0.587018 -0.088248 1.630928
v 0.477191 -0.410311 1.588304
v 0.559144 -0.419531 1.554366
v 0.494633 -0.320679 1.632851
v 0.576379 -0.327784 1.600925
v 0.537387 -0.478179 1.488207
v 0.456854 -0.468164 1.522229
v 0.410102 -0.531995 1.280604
v 0.513324 -0.524669 1.376303
v 0.432838 -0.512460 1.416826
v 0.490794 -0.543223 1.249924
v 0.355775 -0.498199 1.025056
v 0.461915 -0.539451 1.089706
v 0.383559 -0.528553 1.139220
v 0.431041 -0.506605 0.981601
v 0.305579 -0.379704 0.867717
v 0.374564 -0.383752 0.829443
v 0.329395 -0.445380 0.937252
v 0.400857 -0.451270 0.894241
v 0.352496 -0.305606 0.784024
v 0.285275 -0.303502 0.815790
v 0.269200 -0.221973 0.780807
v 0.334107 -0.222474 0.751492
v 0.308691 -0.293267 1.660145
v 0.319379 -0.193232 1.683203
v 0.254476 -0.478096 1.368100
v 0.268013 -0.469634 1.469367
v 0.251359 -0.478536 1.367508
v 0.270598 -0.468361 1.468989
v 0.205887 -0.440879 1.105508
v 0.194633 -0.451159 1.100434
v 0.208216 -0.437601 1.108841
v 0.232333 -0.468882 1.229636
v 0.176716 -0.401066 1.011549
v 0.170259 -0.340442 0.944940
v 0.184894 -0.395822 1.015666
v 0.163125 -0.342088 0.942845
v 0.172923 -0.340060 0.945289
v 0.187894 -0.393657 1.017280
v 0.151154 -0.274312 0.890377
v 0.157566 -0.274226 0.891067
v 0.160389 -0.274564 0.890775
v 0.318536 -0.085858 1.695418
v 0.323091 -0.085403 1.692155
v 0.159509 -0.400499 1.005845
v 0.146514 -0.341829 0.938390
v 0.324209 -0.192849 1.680763
v 0.328246 -0.085090 1.689256
v 0.313080 -0.292767 1.658057
v 0.297000 -0.373333 1.617651
v 0.284465 -0.434013 1.553136
v 0.274291 -0.468579 1.467419
v 0.258369 -0.479027 1.366648
v 0.236463 -0.470827 1.227925
v 0.212563 -0.439510 1.107342
v 0.192004 -0.394887 1.015754
v 0.175783 -0.340848 0.944384
v 0.163017 -0.274897 0.890300
v 0.584553 0.043272 1.616013
v 0.504439 0.040709 1.652966
v 0.423138 0.036341 1.667952
v 0.341584 0.031219 1.673546
v 0.320575 0.030610 1.684037
v 0.325836 0.030692 1.680526
v 0.315731 0.030589 1.687977
v 0.242415 0.411376 1.521323
v 0.320011 0.437618 1.507945
v 0.293478 0.479324 1.430782
v 0.219739 0.458422 1.445002
v 0.269007 0.502000 1.325405
v 0.186885 0.473150 1.247575
v 0.203515 0.479207 1.350923
v 0.247911 0.498307 1.209350
v 0.227514 0.467942 1.063587
v 0.151620 0.388718 1.001860
v 0.168136 0.440799 1.110602
v 0.209047 0.417438 0.960630
v 0.195606 0.353009 0.884453
v 0.132944 0.259877 0.868971
v 0.140178 0.327004 0.924118
v 0.186149 0.280700 0.831098
v 0.272259 0.340776 1.579005
v 0.353630 0.364611 1.569913
v 0.323443 0.145158 1.656127
v 0.382629 0.266869 1.616937
v 0.300596 0.248298 1.623589
v 0.405025 0.156850 1.650656
v 0.484330 0.167257 1.634718
v 0.540798 0.293379 1.565590
v 0.461060 0.283390 1.599246
v 0.564010 0.173489 1.600173
v 0.400286 0.464553 1.485503
v 0.432440 0.386839 1.549714
v 0.480137 0.479259 1.448753
v 0.512424 0.399776 1.515433
v 0.449380 0.522998 1.370564
v 0.371070 0.507724 1.407557
v 0.419071 0.547561 1.250311
v 0.317099 0.526004 1.156284
v 0.341100 0.531171 1.294196
v 0.395313 0.542993 1.122288
v 0.369605 0.510685 0.966311
v 0.272741 0.446416 0.914059
v 0.293389 0.497243 1.018684
v 0.346252 0.457963 0.868261
v 0.257011 0.378061 0.840493
v 0.327194 0.386725 0.795771
v 0.313785 0.307682 0.748196
v 0.245796 0.300405 0.787801
v 0.308049 0.144679 1.662257
v 0.285514 0.247353 1.629036
v 0.257521 0.339270 1.583791
vn -0.0472 -0.8400 0.5405
vn -0.0921 -0.8409 0.5334
vn 0.0036 -0.6034 0.7974
vn -0.0155 -0.6046 0.7964
vn -0.2846 -0.9554 0.0790
vn -0.1757 -0.9405 0.2907
vn -0.1541 -0.9503 0.2705
vn -0.2816 -0.9549 0.0938
vn -0.4801 -0.8516 -0.2103
vn -0.3835 -0.9222 -0.0502
vn -0.3985 -0.9157 -0.0513
vn -0.4681 -0.8564 -0.2180
vn -0.5250 -0.6685 -0.5267
vn -0.5095 -0.7687 -0.3865
vn -0.5106 -0.7752 -0.3719
vn -0.5203 -0.6622 -0.5393
vn -0.5263 -0.5309 -0.6642
vn -0.5715 -0.5151 -0.6388
vn 0.0446 -0.3387 0.9398
vn 0.0611 -0.3362 0.9398
vn 0.0984 0.0050 0.9951
vn 0.0744 -0.1500 0.9859
vn 0.0989 -0.1431 0.9848
vn 0.1156 0.0137 0.9932
vn 0.2858 0.0174 0.9581
vn 0.2662 -0.1440 0.9531
vn 0.3601 -0.1451 0.9216
vn 0.3905 0.0234 0.9203
vn 0.1368 -0.6171 0.7749
vn 0.2237 -0.6517 0.7247
vn 0.2267 -0.3449 0.9108
vn 0.3069 -0.3663 0.8784
vn 0.0824 -0.8623 0.4997
vn 0.0013 -0.8579 0.5138
vn -0.1945 -0.9773 0.0844
vn -0.0259 -0.9665 0.2553
vn -0.0981 -0.9554 0.2786
vn -0.1201 -0.9898 0.0760
vn -0.3689 -0.8907 -0.2656
vn -0.2168 -0.9661 -0.1403
vn -0.2733 -0.9598 -0.0645
vn -0.2922 -0.9005 -0.3219
vn -0.4531 -0.6541 -0.6056
vn -0.4093 -0.6424 -0.6480
vn -0.4245 -0.7842 -0.4526
vn -0.3741 -0.7737 -0.5113
vn -0.4000 -0.4973 -0.7699
vn -0.4431 -0.5153 -0.7336
vn -0.5390 -0.4453 -0.7149
vn -0.5690 -0.4962 -0.6558
vn -0.3884 -0.4193 -0.8205
vn -0.4322 -0.4338 -0.7906
vn -0.0672 -0.9975 0.0224
vn 0.4448 -0.8956 -0.0077
vn 0.2041 -0.9678 0.1472
vn 0.1887 -0.9611 0.2019
vn 0.5707 -0.6145 -0.5447
vn 0.2684 -0.6620 -0.6998
vn 0.6448 -0.5767 -0.5017
vn 0.2336 -0.6544 -0.7191
vn 0.1850 -0.7622 -0.6204
vn 0.1351 -0.8350 -0.5333
vn -0.0089 -0.6617 -0.7498
vn 0.1268 -0.6037 -0.7870
vn -0.1600 -0.6428 -0.7492
vn 0.7025 -0.5535 -0.4473
vn 0.7152 -0.5203 -0.4666
vn -0.3632 -0.9216 0.1368
vn 0.5866 0.0183 0.8097
vn 0.4583 -0.1611 0.8741
vn 0.5368 -0.0061 0.8437
vn 0.1991 -0.6918 -0.6941
vn 0.2133 -0.6186 -0.7562
vn 0.3616 -0.1650 0.9176
vn 0.4021 -0.0027 0.9156
vn 0.2995 -0.4379 0.8477
vn 0.2455 -0.5987 0.7624
vn 0.4269 -0.4903 0.7598
vn 0.1086 -0.8625 0.4943
vn -0.0959 -0.9613 0.2582
vn -0.3073 -0.9492 0.0677
vn -0.4278 -0.9034 -0.0271
vn -0.4952 -0.8359 -0.2367
vn -0.4162 -0.8114 -0.4104
vn -0.4115 -0.7610 -0.5014
vn -0.4018 -0.6716 -0.6225
vn -0.3804 -0.6226 -0.6839
vn -0.3044 -0.5726 -0.7612
vn -0.2109 -0.6531 -0.7273
vn 0.2979 0.1372 0.9447
vn 0.4109 0.1419 0.9006
vn 0.1213 0.1264 0.9845
vn 0.1074 0.1254 0.9863
vn 0.5757 0.1191 0.8089
vn 0.4335 0.1424 0.8898
vn 0.6522 0.0677 0.7550
vn -0.0360 0.7379 0.6739
vn -0.1053 0.7404 0.6638
vn -0.2069 0.8995 0.3848
vn -0.1474 0.9135 0.3791
vn -0.3024 0.9426 0.1414
vn -0.3778 0.9253 -0.0341
vn -0.2723 0.9520 0.1395
vn -0.4125 0.9095 -0.0521
vn -0.5141 0.8362 -0.1912
vn -0.5999 0.7257 -0.3370
vn -0.5120 0.8316 -0.2152
vn -0.5941 0.7233 -0.3519
vn -0.6246 0.5905 -0.5111
vn -0.5885 0.5524 -0.5904
vn -0.6154 0.6026 -0.5081
vn -0.6204 0.5133 -0.5930
vn -0.0157 0.5370 0.8434
vn 0.0004 0.5373 0.8434
vn 0.0814 0.2402 0.9673
vn 0.0619 0.3762 0.9245
vn 0.0370 0.3788 0.9247
vn 0.0998 0.2341 0.9671
vn 0.2668 0.2519 0.9302
vn 0.3140 0.4051 0.8586
vn 0.2239 0.3976 0.8898
vn 0.3713 0.2527 0.8935
vn 0.0383 0.7698 0.6371
vn 0.1578 0.5651 0.8098
vn 0.1131 0.8026 0.5856
vn 0.2324 0.5836 0.7781
vn -0.0295 0.9356 0.3518
vn -0.1186 0.9248 0.3616
vn -0.1619 0.9833 0.0830
vn -0.3279 0.9424 -0.0658
vn -0.2276 0.9656 0.1260
vn -0.2493 0.9655 -0.0752
vn -0.3598 0.8890 -0.2830
vn -0.4976 0.7656 -0.4079
vn -0.4069 0.8884 -0.2126
vn -0.4192 0.7666 -0.4863
vn -0.5395 0.6071 -0.5834
vn -0.4888 0.5943 -0.6387
vn -0.4845 0.5317 -0.6946
vn -0.5391 0.5252 -0.6585
vn 0.3745 0.2575 0.8908
vn 0.2989 0.4460 0.8437
vn 0.2138 0.5372 0.8159
vt 0.204221 0.318542
vt 0.203150 0.299769
vt 0.221186 0.316203
vt 0.219528 0.297153
vt 0.166526 0.321151
vt 0.183084 0.301216
vt 0.186151 0.319515
vt 0.161479 0.301865
vt 0.116958 0.324386
vt 0.134104 0.300734
vt 0.140028 0.322537
vt 0.112736 0.301375
vt 0.081303 0.328200
vt 0.094122 0.302429
vt 0.098120 0.326196
vt 0.077339 0.304047
vt 0.060551 0.305873
vt 0.064921 0.330086
vt 0.238403 0.312511
vt 0.237173 0.293302
vt 0.276910 0.307051
vt 0.257328 0.309278
vt 0.256462 0.290435
vt 0.276501 0.288613
vt 0.276064 0.270294
vt 0.255541 0.272002
vt 0.254919 0.252654
vt 0.275732 0.251077
vt 0.218057 0.277061
vt 0.216936 0.256799
vt 0.235857 0.274292
vt 0.235030 0.254610
vt 0.200737 0.258566
vt 0.201954 0.279313
vt 0.156332 0.278873
vt 0.179094 0.257784
vt 0.180748 0.280524
vt 0.157008 0.254928
vt 0.110483 0.276047
vt 0.129736 0.249983
vt 0.131385 0.276745
vt 0.110230 0.249059
vt 0.075270 0.277415
vt 0.075202 0.249314
vt 0.092300 0.276593
vt 0.091828 0.249046
vt 0.059026 0.249612
vt 0.058677 0.278386
vt 0.044563 0.307751
vt 0.049063 0.331978
vt 0.042476 0.249650
vt 0.042195 0.279201
vt 0.168026 0.326019
vt 0.187187 0.324662
vt 0.167906 0.326878
vt 0.187207 0.323931
vt 0.099869 0.337146
vt 0.082525 0.334533
vt 0.099622 0.333706
vt 0.082846 0.337391
vt 0.082392 0.333491
vt 0.099549 0.332406
vt 0.066001 0.335761
vt 0.066402 0.338388
vt 0.065830 0.334605
vt 0.118365 0.331669
vt 0.118566 0.336311
vt 0.142149 0.328114
vt 0.276920 0.312993
vt 0.257488 0.313919
vt 0.276931 0.311845
vt 0.099691 0.343080
vt 0.083227 0.343691
vt 0.257457 0.312765
vt 0.276925 0.310606
vt 0.238662 0.315960
vt 0.221632 0.319619
vt 0.238718 0.317020
vt 0.204619 0.321928
vt 0.186961 0.322940
vt 0.167755 0.324901
vt 0.141814 0.326760
vt 0.118336 0.328906
vt 0.099244 0.330864
vt 0.118627 0.330419
vt 0.082207 0.332351
vt 0.065652 0.333520
vt 0.297554 0.268532
vt 0.297553 0.249145
vt 0.297554 0.287199
vt 0.297555 0.305498
vt 0.297555 0.310429
vt 0.297555 0.309140
vt 0.297555 0.311673
vt 0.373924 0.316201
vt 0.375581 0.297152
vt 0.391960 0.299768
vt 0.390890 0.318540
vt 0.412026 0.301214
vt 0.428585 0.321148
vt 0.408961 0.319513
vt 0.433631 0.301863
vt 0.461007 0.300730
vt 0.478155 0.324381
vt 0.455085 0.322532
vt 0.482375 0.301371
vt 0.500990 0.302423
vt 0.513811 0.328193
vt 0.496994 0.326190
vt 0.517774 0.304040
vt 0.356707 0.312510
vt 0.357936 0.293301
vt 0.318200 0.307051
vt 0.338646 0.290435
vt 0.337781 0.309278
vt 0.318608 0.288613
vt 0.319043 0.270294
vt 0.340188 0.252653
vt 0.339567 0.272001
vt 0.319374 0.251077
vt 0.377051 0.277060
vt 0.359251 0.274291
vt 0.378171 0.256798
vt 0.360077 0.254610
vt 0.394371 0.258565
vt 0.393155 0.279311
vt 0.416015 0.257784
vt 0.438778 0.278871
vt 0.414362 0.280523
vt 0.438101 0.254926
vt 0.465373 0.249981
vt 0.484627 0.276043
vt 0.463725 0.276742
vt 0.484880 0.249056
vt 0.502811 0.276589
vt 0.503282 0.249043
vt 0.519908 0.249310
vt 0.519841 0.277409
vt 0.318185 0.310606
vt 0.337653 0.312764
vt 0.356448 0.315958
s 1
usemtl mtl_bee41.001
f 1/1/1 2/2/2 3/3/3
f 4/4/4 3/3/3 2/2/2
f 5/5/5 6/6/6 7/7/7
f 6/6/6 5/5/5 8/8/8
f 9/9/9 10/10/10 11/11/11
f 10/10/10 9/9/9 12/12/12
f 13/13/13 14/14/14 15/15/15
f 14/14/14 13/13/13 16/16/16
f 17/17/17 13/13/13 18/18/18
f 13/13/13 17/17/17 16/16/16
f 3/3/3 4/4/4 19/19/19
f 20/20/20 19/19/19 4/4/4
f 21/21/21 22/22/22 23/23/23
f 21/21/21 23/23/23 24/24/24
f 27/25/25 28/26/26 29/27/27
f 27/25/25 29/27/27 30/28/28
f 31/29/29 32/30/30 33/31/31
f 34/32/32 33/31/31 32/30/30
f 31/29/29 35/33/33 32/30/30
f 35/33/33 31/29/29 36/34/34
f 37/35/35 38/36/36 39/37/37
f 38/36/36 37/35/35 40/38/38
f 41/39/39 42/40/40 43/41/41
f 42/40/40 41/39/39 44/42/42
f 45/43/43 46/44/44 47/45/45
f 48/46/46 47/45/45 46/44/44
f 45/43/43 49/47/47 46/44/44
f 49/47/47 45/43/43 50/48/48
f 26/49/49 18/18/18 25/50/50
f 18/18/18 26/49/49 17/17/17
f 50/48/48 52/51/51 49/47/47
f 52/51/51 50/48/48 51/52/52
f 28/26/26 34/32/32 29/27/27
f 34/32/32 28/26/26 33/31/31
f 22/22/22 20/20/20 23/23/23
f 20/20/20 22/22/22 19/19/19
f 1/1/1 6/6/6 2/2/2
f 6/6/6 1/1/1 7/7/7
f 39/37/37 35/33/33 36/34/34
f 35/33/33 39/37/37 38/36/36
f 44/42/42 47/45/45 48/46/46
f 47/45/45 44/42/42 41/39/39
f 15/15/15 12/12/12 9/9/9
f 12/12/12 15/15/15 14/14/14
f 5/5/5 11/11/11 8/8/8
f 11/11/11 10/10/10 8/8/8
f 43/41/41 40/38/38 37/35/35
f 40/38/38 43/41/41 42/40/40
f 55/53/53 56/54/54 57/55/55
f 56/54/54 55/53/53 58/56/56
f 63/57/57 64/58/58 65/59/59
f 64/58/58 63/57/57 66/60/60
f 67/61/61 68/62/62 65/59/59
f 65/59/59 64/58/58 67/61/61
f 66/60/60 70/63/63 64/58/58
f 70/63/63 66/60/60 69/64/64
f 64/58/58 70/63/63 71/65/65
f 65/59/59 59/66/66 60/67/67
f 60/67/67 63/57/57 65/59/59
f 59/66/66 65/59/59 68/62/62
f 57/55/55 62/68/68 55/53/53
f 72/69/69 54/70/70 73/71/71
f 74/72/72 75/73/73 66/60/60
f 74/72/72 66/60/60 63/57/57
f 75/73/73 69/64/64 66/60/60
f 76/74/74 77/75/75 73/71/71
f 73/71/71 54/70/70 76/74/74
f 22/22/22 77/75/75 76/74/74
f 77/75/75 22/22/22 21/21/21
f 54/70/70 78/76/76 76/74/74
f 19/19/19 22/22/22 76/74/74
f 76/74/74 78/76/76 19/19/19
f 78/76/76 3/3/3 19/19/19
f 3/3/3 78/76/76 79/77/77
f 53/78/78 79/77/77 78/76/76
f 79/77/77 1/1/1 3/3/3
f 1/1/1 79/77/77 80/79/79
f 7/7/7 1/1/1 81/80/80
f 80/79/79 81/80/80 1/1/1
f 81/80/80 80/79/79 58/56/56
f 81/80/80 55/53/53 82/81/81
f 55/53/53 81/80/80 58/56/56
f 5/5/5 7/7/7 82/81/81
f 81/80/80 82/81/81 7/7/7
f 11/11/11 5/5/5 83/82/82
f 82/81/81 83/82/82 5/5/5
f 62/68/68 82/81/81 55/53/53
f 82/81/81 62/68/68 83/82/82
f 11/11/11 84/83/83 9/9/9
f 84/83/83 11/11/11 83/82/82
f 85/84/84 84/83/83 68/62/62
f 61/85/85 68/62/62 84/83/83
f 15/15/15 9/9/9 85/84/84
f 84/83/83 85/84/84 9/9/9
f 13/13/13 15/15/15 86/86/86
f 85/84/84 86/86/86 15/15/15
f 67/61/61 85/84/84 68/62/62
f 67/61/87 87/87/88 86/86/86
f 87/87/88 67/61/87 71/65/89
f 86/86/86 87/87/88 18/18/18
f 86/86/86 18/18/18 13/13/13
f 87/87/88 25/50/50 18/18/18
f 23/23/23 28/26/26 24/24/24
f 24/24/24 28/26/26 27/25/25
f 33/31/31 23/23/23 20/20/20
f 23/23/23 33/31/31 28/26/26
f 20/20/20 31/29/29 33/31/31
f 31/29/29 20/20/20 4/4/4
f 4/4/4 36/34/34 31/29/29
f 36/34/34 4/4/4 2/2/2
f 2/2/2 39/37/37 36/34/34
f 39/37/37 2/2/2 6/6/6
f 8/8/8 39/37/37 6/6/6
f 39/37/37 8/8/8 37/35/35
f 10/10/10 37/35/35 8/8/8
f 37/35/35 10/10/10 43/41/41
f 12/12/12 43/41/41 10/10/10
f 43/41/41 12/12/12 41/39/39
f 14/14/14 41/39/39 12/12/12
f 41/39/39 14/14/14 47/45/45
f 47/45/45 16/16/16 45/43/43
f 16/16/16 47/45/45 14/14/14
f 16/16/16 17/17/17 50/48/48
f 50/48/48 45/43/43 16/16/16
f 17/17/17 26/49/49 51/52/52
f 51/52/52 50/48/48 17/17/17
f 89/88/90 30/28/28 88/89/91
f 30/28/28 89/88/90 27/25/25
f 90/90/92 27/25/25 89/88/90
f 27/25/25 90/90/92 24/24/24
f 91/91/93 24/24/24 90/90/92
f 24/24/24 91/91/93 21/21/21
f 92/92/94 77/75/75 93/93/95
f 77/75/75 92/92/94 73/71/71
f 93/93/95 77/75/75 21/21/21
f 93/93/95 21/21/21 91/91/93
f 73/71/71 94/94/96 72/69/69
f 94/94/96 73/71/71 92/92/94
f 95/95/97 96/96/98 97/97/99
f 95/95/97 97/97/99 98/98/100
f 99/99/101 100/100/102 101/101/103
f 100/100/102 99/99/101 102/102/104
f 103/103/105 104/104/106 105/105/107
f 104/104/106 103/103/105 106/106/108
f 107/107/109 108/108/110 109/109/111
f 108/108/110 107/107/109 110/110/112
f 111/111/113 112/112/114 96/96/98
f 111/111/113 96/96/98 95/95/97
f 113/113/115 114/114/116 115/115/117
f 114/114/116 113/113/115 116/116/118
f 117/117/119 118/118/120 119/119/121
f 118/118/120 117/117/119 120/120/122
f 121/121/123 122/122/124 123/123/125
f 122/122/124 124/124/126 123/123/125
f 121/121/123 125/125/127 126/126/128
f 125/125/127 121/121/123 123/123/125
f 127/127/129 128/128/130 129/129/131
f 128/128/130 127/127/129 130/130/132
f 131/131/133 132/132/134 133/133/135
f 132/132/134 131/131/133 134/134/136
f 135/135/137 136/136/138 137/137/139
f 135/135/137 137/137/139 138/138/140
f 119/119/121 124/124/126 122/122/124
f 124/124/126 119/119/121 118/118/120
f 115/115/117 112/112/114 111/111/113
f 112/112/114 115/115/117 114/114/116
f 98/98/100 99/99/101 101/101/103
f 99/99/101 98/98/100 97/97/99
f 126/126/128 125/125/127 129/129/131
f 125/125/127 127/127/129 129/129/131
f 134/134/136 135/135/137 132/132/134
f 135/135/137 134/134/136 136/136/138
f 106/106/108 109/109/111 104/104/106
f 109/109/111 106/106/108 107/107/109
f 102/102/104 105/105/107 100/100/102
f 105/105/107 102/102/104 103/103/105
f 133/133/135 128/128/130 130/130/132
f 130/130/132 131/131/133 133/133/135
f 139/139/141 115/115/117 140/140/142
f 115/115/117 139/139/141 113/113/115
f 115/115/117 111/111/113 140/140/142
f 141/141/143 140/140/142 111/111/113
f 95/95/97 141/141/143 111/111/113
f 114/114/116 116/116/118 119/119/121
f 116/116/118 117/117/119 119/119/121
f 122/122/124 114/114/116 119/119/121
f 114/114/116 122/122/124 112/112/114
f 112/112/114 122/122/124 121/121/123
f 112/112/114 121/121/123 96/96/98
f 96/96/98 121/121/123 126/126/128
f 96/96/98 126/126/128 97/97/99
f 97/97/99 129/129/131 99/99/101
f 129/129/131 97/97/99 126/126/128
f 129/129/131 102/102/104 99/99/101
f 102/102/104 129/129/131 128/128/130
f 128/128/130 103/103/105 102/102/104
f 103/103/105 128/128/130 133/133/135
f 133/133/135 106/106/108 103/103/105
f 106/106/108 133/133/135 132/132/134
f 132/132/134 107/107/109 106/106/108
f 107/107/109 132/132/134 135/135/137
f 135/135/137 110/110/112 107/107/109
f 110/110/112 135/135/137 138/138/140
f 89/88/90 120/120/122 117/117/119
f 120/120/122 89/88/90 88/89/91
f 90/90/92 117/117/119 116/116/118
f 117/117/119 90/90/92 89/88/90
f 91/91/93 116/116/118 113/113/115
f 116/116/118 91/91/93 90/90/92
f 139/139/141 92/92/94 93/93/95
f 91/91/93 113/113/115 93/93/95
f 139/139/141 93/93/95 113/113/115
