# Blender 5.0.0
# www.blender.org
mtllib room.mtl
o flight_box_base
v -70.214134 -29.255888 -46.809422
v 70.214134 -29.255888 -46.809422
v 70.214134 -29.255888 46.809422
v -70.214134 -29.255888 46.809422
v -70.214134 -28.741903 -46.809422
v -70.214134 -28.741903 46.809422
v 70.214134 -28.741903 46.809422
v 70.214134 -28.741903 -46.809422
v -70.690720 -29.255888 -46.809422
v -70.690720 -29.255888 46.809422
v 69.737549 -29.255888 46.809422
v 69.737549 -29.255888 -46.809422
v -70.690720 -28.741903 -46.809422
v 69.737549 -28.741903 -46.809422
v 69.737549 -28.741903 46.809422
v -70.690720 -28.741903 46.809422
vn -0.0000 -1.0000 -0.0000
vn -0.0000 1.0000 -0.0000
vn 1.0000 -0.0000 -0.0000
vn -1.0000 -0.0000 -0.0000
vn -0.0000 -0.0000 1.0000
vn -0.0000 -0.0000 -1.0000
s 0
f 1//1 2//1 3//1
f 1//1 3//1 4//1
f 5//2 6//2 7//2
f 5//2 7//2 8//2
f 2//3 8//3 7//3
f 2//3 7//3 3//3
f 4//4 6//4 5//4
f 4//4 5//4 1//4
f 3//5 7//5 6//5
f 3//5 6//5 4//5
f 1//6 5//6 8//6
f 1//6 8//6 2//6
f 9//2 10//2 11//2
f 9//2 11//2 12//2
f 13//1 14//1 15//1
f 13//1 15//1 16//1
f 12//4 11//4 15//4
f 12//4 15//4 14//4
f 10//3 9//3 13//3
f 10//3 13//3 16//3
f 11//6 10//6 16//6
f 11//6 16//6 15//6
f 9//5 12//5 14//5
f 9//5 14//5 13//5
o flight_box_cover
v -70.214134 -29.255888 46.809422
v -70.214134 29.255888 46.809422
v -70.214134 29.255888 -46.809422
v -70.214134 -29.255888 -46.809422
v 70.214134 -29.255888 46.809422
v 70.214134 29.255888 46.809422
v 70.214134 29.255888 -46.809422
v 70.214134 -29.255888 -46.809422
vn -1.0000 -0.0000 -0.0000
vn -0.0000 -0.0000 1.0000
vn -0.0000 -0.0000 -1.0000
vn 1.0000 -0.0000 -0.0000
vn -0.0000 1.0000 -0.0000
s 0
f 17//7 18//7 19//7
f 17//7 19//7 20//7
f 21//8 22//8 18//8
f 21//8 18//8 17//8
f 20//9 19//9 23//9
f 20//9 23//9 24//9
f 24//10 23//10 22//10
f 24//10 22//10 21//10
f 23//11 19//11 18//11
f 23//11 18//11 22//11
o flower_block
v -1.848972 -1.718933 -1.848972
v 1.848972 -1.718933 -1.848972
v 1.848972 -1.718933 1.848972
v -1.848972 -1.718933 1.848972
v -1.848972 0.949204 1.848972
v -1.848972 0.949204 -1.848972
v 1.848972 0.949204 1.848972
v 1.848972 0.949204 -1.848972
v -0.496489 0.949204 0.496489
v -0.583809 0.949204 0.390089
v -0.648694 0.949204 0.268698
v 0.583809 0.949204 0.390089
v 0.496489 0.949204 0.496489
v 0.648694 0.949204 0.268698
v -0.688650 0.949204 0.136981
v 0.688650 0.949204 0.136981
v -0.702141 0.949204 -0.000000
v -0.688650 0.949204 -0.136981
v 0.702141 0.949204 -0.000000
v 0.688650 0.949204 -0.136981
v -0.648694 0.949204 -0.268698
v -0.583809 0.949204 -0.390089
v 0.648694 0.949204 -0.268698
v 0.583809 0.949204 -0.390089
v -0.496489 0.949204 -0.496489
v -0.390089 0.949204 -0.583809
v 0.496489 0.949204 -0.496489
v 0.390089 0.949204 -0.583809
v -0.268698 0.949204 -0.648694
v 0.268698 0.949204 -0.648694
v 0.136981 0.949204 -0.688650
v -0.136981 0.949204 -0.688650
v -0.000000 0.949204 -0.702141
v -0.390089 0.949204 0.583809
v 0.390089 0.949204 0.583809
v 0.268698 0.949204 0.648694
v -0.268698 0.949204 0.648694
v 0.136981 0.949204 0.688650
v -0.000000 0.949204 0.702141
v -0.136981 0.949204 0.688650
v 0.496489 -0.852961 0.496489
v 0.390089 -0.852961 0.583809
v 0.583809 -0.852961 0.390089
v -0.496489 -0.852961 -0.496489
v -0.583809 -0.852961 -0.390089
v -0.648694 -0.852961 -0.268698
v -0.688650 -0.852961 -0.136981
v -0.702141 -0.852961 -0.000000
v -0.688650 -0.852961 0.136981
v -0.648694 -0.852961 0.268698
v -0.583809 -0.852961 0.390089
v -0.496489 -0.852961 0.496489
v -0.390089 -0.852961 0.583809
v -0.268698 -0.852961 0.648694
v -0.136981 -0.852961 0.688650
v -0.000000 -0.852961 0.702141
v 0.136981 -0.852961 0.688650
v 0.268698 -0.852961 0.648694
v 0.648694 -0.852961 0.268698
v 0.688650 -0.852961 0.136981
v 0.702141 -0.852961 -0.000000
v 0.688650 -0.852961 -0.136981
v 0.648694 -0.852961 -0.268698
v 0.583809 -0.852961 -0.390089
v 0.496489 -0.852961 -0.496489
v 0.390089 -0.852961 -0.583809
v 0.268698 -0.852961 -0.648694
v 0.136981 -0.852961 -0.688650
v -0.000000 -0.852961 -0.702141
v -0.136981 -0.852961 -0.688650
v -0.268698 -0.852961 -0.648694
v -0.390089 -0.852961 -0.583809
vn -0.0000 -1.0000 -0.0000
vn -1.0000 -0.0000 -0.0000
vn -0.0000 -0.0000 1.0000
vn 1.0000 -0.0000 -0.0000
vn -0.0000 1.0000 -0.0000
vn -0.6344 -0.0000 -0.7730
vn -0.7730 -0.0000 -0.6344
vn -0.4714 -0.0000 -0.8819
vn -0.2903 -0.0000 -0.9569
vn -0.0980 -0.0000 -0.9952
vn 0.0980 -0.0000 -0.9952
vn 0.2903 -0.0000 -0.9569
vn 0.4714 -0.0000 -0.8819
vn 0.6344 -0.0000 -0.7730
vn 0.7730 -0.0000 -0.6344
vn 0.8819 -0.0000 -0.4714
vn 0.9569 -0.0000 -0.2903
vn 0.9952 -0.0000 -0.0980
vn 0.9952 -0.0000 0.0980
vn 0.9569 -0.0000 0.2903
vn 0.8819 -0.0000 0.4714
vn 0.7730 -0.0000 0.6344
vn 0.6344 -0.0000 0.7730
vn 0.4714 -0.0000 0.8819
vn 0.2903 -0.0000 0.9569
vn 0.0980 -0.0000 0.9952
vn -0.0980 -0.0000 0.9952
vn -0.2903 -0.0000 0.9569
vn -0.4714 -0.0000 0.8819
vn -0.6344 -0.0000 0.7730
vn -0.7730 -0.0000 0.6344
vn -0.8819 -0.0000 0.4714
vn -0.9569 -0.0000 0.2903
vn -0.9952 -0.0000 0.0980
vn -0.9952 -0.0000 -0.0980
vn -0.9569 -0.0000 -0.2903
vn -0.8819 -0.0000 -0.4714
vn -0.0000 -0.0000 -1.0000
s 0
f 25//12 26//12 27//12
f 25//12 27//12 28//12
f 28//13 29//13 30//13
f 28//13 30//13 25//13
f 27//14 31//14 29//14
f 27//14 29//14 28//14
f 26//15 32//15 31//15
f 26//15 31//15 27//15
f 29//16 33//16 34//16
f 29//16 34//16 35//16
f 36//16 37//16 31//16
f 38//16 36//16 31//16
f 30//16 29//16 35//16
f 30//16 35//16 39//16
f 38//16 31//16 32//16
f 40//16 38//16 32//16
f 30//16 39//16 41//16
f 30//16 41//16 42//16
f 43//16 40//16 32//16
f 44//16 43//16 32//16
f 30//16 42//16 45//16
f 30//16 45//16 46//16
f 47//16 44//16 32//16
f 48//16 47//16 32//16
f 30//16 46//16 49//16
f 30//16 49//16 50//16
f 51//16 48//16 32//16
f 52//16 51//16 32//16
f 32//16 30//16 50//16
f 32//16 50//16 53//16
f 54//16 52//16 32//16
f 55//16 54//16 32//16
f 32//16 53//16 56//16
f 57//16 55//16 32//16
f 32//16 56//16 57//16
f 58//16 33//16 29//16
f 31//16 37//16 59//16
f 31//16 59//16 60//16
f 58//16 29//16 31//16
f 61//16 58//16 31//16
f 31//16 60//16 62//16
f 31//16 62//16 63//16
f 64//16 61//16 31//16
f 31//16 63//16 64//16
f 65//17 66//17 59//17
f 65//17 59//17 37//17
f 67//18 65//18 37//18
f 67//18 37//18 36//18
f 68//16 69//16 70//16
f 70//16 71//16 72//16
f 72//16 73//16 74//16
f 74//16 75//16 76//16
f 76//16 77//16 78//16
f 78//16 79//16 80//16
f 80//16 81//16 82//16
f 82//16 66//16 65//16
f 65//16 67//16 83//16
f 83//16 84//16 85//16
f 85//16 86//16 87//16
f 87//16 88//16 89//16
f 89//16 90//16 91//16
f 91//16 92//16 93//16
f 93//16 94//16 95//16
f 95//16 96//16 68//16
f 68//16 70//16 72//16
f 72//16 74//16 76//16
f 76//16 78//16 80//16
f 80//16 82//16 65//16
f 65//16 83//16 85//16
f 85//16 87//16 89//16
f 89//16 91//16 93//16
f 93//16 95//16 68//16
f 68//16 72//16 76//16
f 76//16 80//16 65//16
f 65//16 85//16 89//16
f 89//16 93//16 68//16
f 68//16 76//16 65//16
f 65//16 89//16 68//16
f 66//19 82//19 60//19
f 66//19 60//19 59//19
f 82//20 81//20 62//20
f 82//20 62//20 60//20
f 81//21 80//21 63//21
f 81//21 63//21 62//21
f 80//22 79//22 64//22
f 80//22 64//22 63//22
f 79//23 78//23 61//23
f 79//23 61//23 64//23
f 78//24 77//24 58//24
f 78//24 58//24 61//24
f 77//25 76//25 33//25
f 77//25 33//25 58//25
f 33//26 76//26 75//26
f 33//26 75//26 34//26
f 34//27 75//27 74//27
f 34//27 74//27 35//27
f 35//28 74//28 73//28
f 35//28 73//28 39//28
f 39//29 73//29 72//29
f 39//29 72//29 41//29
f 41//30 72//30 71//30
f 41//30 71//30 42//30
f 42//31 71//31 70//31
f 42//31 70//31 45//31
f 45//32 70//32 69//32
f 45//32 69//32 46//32
f 46//33 69//33 68//33
f 46//33 68//33 49//33
f 49//34 68//34 96//34
f 49//34 96//34 50//34
f 50//35 96//35 95//35
f 50//35 95//35 53//35
f 53//36 95//36 94//36
f 53//36 94//36 56//36
f 56//37 94//37 93//37
f 56//37 93//37 57//37
f 57//38 93//38 92//38
f 57//38 92//38 55//38
f 55//39 92//39 91//39
f 55//39 91//39 54//39
f 54//40 91//40 90//40
f 54//40 90//40 52//40
f 52//41 90//41 89//41
f 52//41 89//41 51//41
f 89//42 88//42 48//42
f 89//42 48//42 51//42
f 88//43 87//43 47//43
f 88//43 47//43 48//43
f 87//44 86//44 44//44
f 87//44 44//44 47//44
f 86//45 85//45 43//45
f 86//45 43//45 44//45
f 85//46 84//46 40//46
f 85//46 40//46 43//46
f 84//47 83//47 38//47
f 84//47 38//47 40//47
f 83//48 67//48 36//48
f 83//48 36//48 38//48
f 25//49 30//49 32//49
f 25//49 32//49 26//49
o flower_bottle
v -0.000000 0.000000 -4.680943
v -0.000000 18.489721 -4.680943
v 0.913207 18.489721 -4.590999
v 0.913207 0.000000 -4.590999
v 1.791319 18.489721 -4.324626
v 1.791319 0.000000 -4.324626
v 2.600592 18.489721 -3.892061
v 2.600592 0.000000 -3.892061
v 3.309926 18.489721 -3.309926
v 3.309926 0.000000 -3.309926
v 3.892061 18.489721 -2.600592
v 3.892061 0.000000 -2.600592
v 4.324626 18.489721 -1.791319
v 4.324626 0.000000 -1.791319
v 4.590999 18.489721 -0.913207
v 4.590999 0.000000 -0.913207
v 4.680943 18.489721 0.000000
v 4.680943 0.000000 0.000000
v 4.590999 18.489721 0.913207
v 4.590999 0.000000 0.913207
v 4.324626 18.489721 1.791319
v 4.324626 0.000000 1.791319
v 3.892061 18.489721 2.600592
v 3.892061 0.000000 2.600592
v 3.309926 18.489721 3.309926
v 3.309926 0.000000 3.309926
v 2.600592 18.489721 3.892061
v 2.600592 0.000000 3.892061
v 1.791319 18.489721 4.324626
v 1.791319 0.000000 4.324626
v 0.913207 18.489721 4.590999
v 0.913207 0.000000 4.590999
v -0.000000 18.489721 4.680943
v -0.000000 0.000000 4.680943
v -0.913207 18.489721 4.590999
v -0.913207 0.000000 4.590999
v -1.791319 18.489721 4.324626
v -1.791319 0.000000 4.324626
v -2.600592 18.489721 3.892061
v -2.600592 0.000000 3.892061
v -3.309926 18.489721 3.309926
v -3.309926 0.000000 3.309926
v -3.892061 18.489721 2.600592
v -3.892061 0.000000 2.600592
v -4.324626 18.489721 1.791319
v -4.324626 0.000000 1.791319
v -4.590999 18.489721 0.913207
v -4.590999 0.000000 0.913207
v -4.680943 18.489721 0.000000
v -4.680943 0.000000 0.000000
v -4.590999 18.489721 -0.913207
v -4.590999 0.000000 -0.913207
v -4.324626 18.489721 -1.791319
v -4.324626 0.000000 -1.791319
v -3.892061 18.489721 -2.600592
v -3.892061 0.000000 -2.600592
v -3.309926 18.489721 -3.309926
v -3.309926 0.000000 -3.309926
v -2.600592 18.489721 -3.892061
v -2.600592 0.000000 -3.892061
v -1.791319 18.489721 -4.324626
v -1.791319 0.000000 -4.324626
v -0.913207 18.489721 -4.590999
v -0.913207 0.000000 -4.590999
vn 0.0980 -0.0000 -0.9952
vn 0.2903 -0.0000 -0.9569
vn 0.4714 -0.0000 -0.8819
vn 0.6344 -0.0000 -0.7730
vn 0.7730 -0.0000 -0.6344
vn 0.8819 -0.0000 -0.4714
vn 0.9569 -0.0000 -0.2903
vn 0.9952 -0.0000 -0.0980
vn 0.9952 -0.0000 0.0980
vn 0.9569 -0.0000 0.2903
vn 0.8819 -0.0000 0.4714
vn 0.7730 -0.0000 0.6344
vn 0.6344 -0.0000 0.7730
vn 0.4714 -0.0000 0.8819
vn 0.2903 -0.0000 0.9569
vn 0.0980 -0.0000 0.9952
vn -0.0980 -0.0000 0.9952
vn -0.2903 -0.0000 0.9569
vn -0.4714 -0.0000 0.8819
vn -0.6344 -0.0000 0.7730
vn -0.7730 -0.0000 0.6344
vn -0.8819 -0.0000 0.4714
vn -0.9569 -0.0000 0.2903
vn -0.9952 -0.0000 0.0980
vn -0.9952 -0.0000 -0.0980
vn -0.9569 -0.0000 -0.2903
vn -0.8819 -0.0000 -0.4714
vn -0.7730 -0.0000 -0.6344
vn -0.6344 -0.0000 -0.7730
vn -0.4714 -0.0000 -0.8819
vn -0.0000 1.0000 -0.0000
vn -0.2903 -0.0000 -0.9569
vn -0.0980 -0.0000 -0.9952
vn -0.0000 -1.0000 -0.0000
s 0
f 97//50 98//50 99//50
f 97//50 99//50 100//50
f 100//51 99//51 101//51
f 100//51 101//51 102//51
f 102//52 101//52 103//52
f 102//52 103//52 104//52
f 104//53 103//53 105//53
f 104//53 105//53 106//53
f 106//54 105//54 107//54
f 106//54 107//54 108//54
f 108//55 107//55 109//55
f 108//55 109//55 110//55
f 110//56 109//56 111//56
f 110//56 111//56 112//56
f 112//57 111//57 113//57
f 112//57 113//57 114//57
f 114//58 113//58 115//58
f 114//58 115//58 116//58
f 116//59 115//59 117//59
f 116//59 117//59 118//59
f 118//60 117//60 119//60
f 118//60 119//60 120//60
f 120//61 119//61 121//61
f 120//61 121//61 122//61
f 122//62 121//62 123//62
f 122//62 123//62 124//62
f 124//63 123//63 125//63
f 124//63 125//63 126//63
f 126//64 125//64 127//64
f 126//64 127//64 128//64
f 128//65 127//65 129//65
f 128//65 129//65 130//65
f 130//66 129//66 131//66
f 130//66 131//66 132//66
f 132//67 131//67 133//67
f 132//67 133//67 134//67
f 134//68 133//68 135//68
f 134//68 135//68 136//68
f 136//69 135//69 137//69
f 136//69 137//69 138//69
f 138//70 137//70 139//70
f 138//70 139//70 140//70
f 140//71 139//71 141//71
f 140//71 141//71 142//71
f 142//72 141//72 143//72
f 142//72 143//72 144//72
f 144//73 143//73 145//73
f 144//73 145//73 146//73
f 146//74 145//74 147//74
f 146//74 147//74 148//74
f 148//75 147//75 149//75
f 148//75 149//75 150//75
f 150//76 149//76 151//76
f 150//76 151//76 152//76
f 152//77 151//77 153//77
f 152//77 153//77 154//77
f 154//78 153//78 155//78
f 154//78 155//78 156//78
f 156//79 155//79 157//79
f 156//79 157//79 158//79
f 101//80 99//80 98//80
f 98//80 159//80 157//80
f 157//80 155//80 153//80
f 153//80 151//80 149//80
f 149//80 147//80 145//80
f 145//80 143//80 141//80
f 141//80 139//80 137//80
f 137//80 135//80 133//80
f 133//80 131//80 129//80
f 129//80 127//80 125//80
f 125//80 123//80 121//80
f 121//80 119//80 117//80
f 117//80 115//80 113//80
f 113//80 111//80 109//80
f 109//80 107//80 105//80
f 105//80 103//80 101//80
f 101//80 98//80 157//80
f 157//80 153//80 149//80
f 149//80 145//80 141//80
f 141//80 137//80 133//80
f 133//80 129//80 125//80
f 125//80 121//80 117//80
f 117//80 113//80 109//80
f 109//80 105//80 101//80
f 101//80 157//80 149//80
f 149//80 141//80 133//80
f 133//80 125//80 117//80
f 117//80 109//80 101//80
f 101//80 149//80 133//80
f 133//80 117//80 101//80
f 158//81 157//81 159//81
f 158//81 159//81 160//81
f 160//82 159//82 98//82
f 160//82 98//82 97//82
f 160//83 97//83 100//83
f 100//83 102//83 104//83
f 104//83 106//83 108//83
f 108//83 110//83 112//83
f 112//83 114//83 116//83
f 116//83 118//83 120//83
f 120//83 122//83 124//83
f 124//83 126//83 128//83
f 128//83 130//83 132//83
f 132//83 134//83 136//83
f 136//83 138//83 140//83
f 140//83 142//83 144//83
f 144//83 146//83 148//83
f 148//83 150//83 152//83
f 152//83 154//83 156//83
f 156//83 158//83 160//83
f 160//83 100//83 104//83
f 104//83 108//83 112//83
f 112//83 116//83 120//83
f 120//83 124//83 128//83
f 128//83 132//83 136//83
f 136//83 140//83 144//83
f 144//83 148//83 152//83
f 152//83 156//83 160//83
f 160//83 104//83 112//83
f 112//83 120//83 128//83
f 128//83 136//83 144//83
f 144//83 152//83 160//83
f 160//83 112//83 128//83
f 128//83 144//83 160//83
o flower_lid
v -3.510707 -0.234047 3.510707
v -3.510707 0.234047 3.510707
v -3.510707 0.234047 -3.510707
v -3.510707 -0.234047 -3.510707
v 3.510707 0.234047 -3.510707
v 3.510707 -0.234047 -3.510707
v 3.510707 0.234047 3.510707
v 3.510707 -0.234047 3.510707
vn -1.0000 -0.0000 -0.0000
vn -0.0000 -0.0000 -1.0000
vn 1.0000 -0.0000 -0.0000
vn -0.0000 -0.0000 1.0000
vn -0.0000 -1.0000 -0.0000
vn -0.0000 1.0000 -0.0000
s 0
f 161//84 162//84 163//84
f 161//84 163//84 164//84
f 164//85 163//85 165//85
f 164//85 165//85 166//85
f 166//86 165//86 167//86
f 166//86 167//86 168//86
f 168//87 167//87 162//87
f 168//87 162//87 161//87
f 164//88 166//88 168//88
f 164//88 168//88 161//88
f 165//89 163//89 162//89
f 165//89 162//89 167//89
o flower_platform
v -1.848972 -1.718933 -1.848972
v 1.848972 -1.718933 -1.848972
v 1.848972 -1.718933 1.848972
v -1.848972 -1.718933 1.848972
v -1.848972 0.949204 1.848972
v -1.848972 0.949204 -1.848972
v 1.848972 0.949204 1.848972
v 1.848972 0.949204 -1.848972
v -0.496489 0.949204 0.496489
v -0.583809 0.949204 0.390089
v -0.648694 0.949204 0.268698
v 0.583809 0.949204 0.390089
v 0.496489 0.949204 0.496489
v 0.648694 0.949204 0.268698
v -0.688650 0.949204 0.136981
v 0.688650 0.949204 0.136981
v -0.702141 0.949204 -0.000000
v -0.688650 0.949204 -0.136981
v 0.702141 0.949204 -0.000000
v 0.688650 0.949204 -0.136981
v -0.648694 0.949204 -0.268698
v -0.583809 0.949204 -0.390089
v 0.648694 0.949204 -0.268698
v 0.583809 0.949204 -0.390089
v -0.496489 0.949204 -0.496489
v -0.390089 0.949204 -0.583809
v 0.496489 0.949204 -0.496489
v 0.390089 0.949204 -0.583809
v -0.268698 0.949204 -0.648694
v 0.268698 0.949204 -0.648694
v 0.136981 0.949204 -0.688650
v -0.136981 0.949204 -0.688650
v -0.000000 0.949204 -0.702141
v -0.390089 0.949204 0.583809
v 0.390089 0.949204 0.583809
v 0.268698 0.949204 0.648694
v -0.268698 0.949204 0.648694
v 0.136981 0.949204 0.688650
v -0.000000 0.949204 0.702141
v -0.136981 0.949204 0.688650
v 0.496489 -0.852961 0.496489
v 0.390089 -0.852961 0.583809
v 0.583809 -0.852961 0.390089
v -0.496489 -0.852961 -0.496489
v -0.583809 -0.852961 -0.390089
v -0.648694 -0.852961 -0.268698
v -0.688650 -0.852961 -0.136981
v -0.702141 -0.852961 -0.000000
v -0.688650 -0.852961 0.136981
v -0.648694 -0.852961 0.268698
v -0.583809 -0.852961 0.390089
v -0.496489 -0.852961 0.496489
v -0.390089 -0.852961 0.583809
v -0.268698 -0.852961 0.648694
v -0.136981 -0.852961 0.688650
v -0.000000 -0.852961 0.702141
v 0.136981 -0.852961 0.688650
v 0.268698 -0.852961 0.648694
v 0.648694 -0.852961 0.268698
v 0.688650 -0.852961 0.136981
v 0.702141 -0.852961 -0.000000
v 0.688650 -0.852961 -0.136981
v 0.648694 -0.852961 -0.268698
v 0.583809 -0.852961 -0.390089
v 0.496489 -0.852961 -0.496489
v 0.390089 -0.852961 -0.583809
v 0.268698 -0.852961 -0.648694
v 0.136981 -0.852961 -0.688650
v -0.000000 -0.852961 -0.702141
v -0.136981 -0.852961 -0.688650
v -0.268698 -0.852961 -0.648694
v -0.390089 -0.852961 -0.583809
vn -0.0000 -1.0000 -0.0000
vn -1.0000 -0.0000 -0.0000
vn -0.0000 -0.0000 1.0000
vn 1.0000 -0.0000 -0.0000
vn -0.0000 1.0000 -0.0000
vn -0.6344 -0.0000 -0.7730
vn -0.7730 -0.0000 -0.6344
vn -0.4714 -0.0000 -0.8819
vn -0.2903 -0.0000 -0.9569
vn -0.0980 -0.0000 -0.9952
vn 0.0980 -0.0000 -0.9952
vn 0.2903 -0.0000 -0.9569
vn 0.4714 -0.0000 -0.8819
vn 0.6344 -0.0000 -0.7730
vn 0.7730 -0.0000 -0.6344
vn 0.8819 -0.0000 -0.4714
vn 0.9569 -0.0000 -0.2903
vn 0.9952 -0.0000 -0.0980
vn 0.9952 -0.0000 0.0980
vn 0.9569 -0.0000 0.2903
vn 0.8819 -0.0000 0.4714
vn 0.7730 -0.0000 0.6344
vn 0.6344 -0.0000 0.7730
vn 0.4714 -0.0000 0.8819
vn 0.2903 -0.0000 0.9569
vn 0.0980 -0.0000 0.9952
vn -0.0980 -0.0000 0.9952
vn -0.2903 -0.0000 0.9569
vn -0.4714 -0.0000 0.8819
vn -0.6344 -0.0000 0.7730
vn -0.7730 -0.0000 0.6344
vn -0.8819 -0.0000 0.4714
vn -0.9569 -0.0000 0.2903
vn -0.9952 -0.0000 0.0980
vn -0.9952 -0.0000 -0.0980
vn -0.9569 -0.0000 -0.2903
vn -0.8819 -0.0000 -0.4714
vn -0.0000 -0.0000 -1.0000
s 0
f 169//90 170//90 171//90
f 169//90 171//90 172//90
f 172//91 173//91 174//91
f 172//91 174//91 169//91
f 171//92 175//92 173//92
f 171//92 173//92 172//92
f 170//93 176//93 175//93
f 170//93 175//93 171//93
f 173//94 177//94 178//94
f 173//94 178//94 179//94
f 180//94 181//94 175//94
f 182//94 180//94 175//94
f 174//94 173//94 179//94
f 174//94 179//94 183//94
f 182//94 175//94 176//94
f 184//94 182//94 176//94
f 174//94 183//94 185//94
f 174//94 185//94 186//94
f 187//94 184//94 176//94
f 188//94 187//94 176//94
f 174//94 186//94 189//94
f 174//94 189//94 190//94
f 191//94 188//94 176//94
f 192//94 191//94 176//94
f 174//94 190//94 193//94
f 174//94 193//94 194//94
f 195//94 192//94 176//94
f 196//94 195//94 176//94
f 176//94 174//94 194//94
f 176//94 194//94 197//94
f 198//94 196//94 176//94
f 199//94 198//94 176//94
f 176//94 197//94 200//94
f 201//94 199//94 176//94
f 176//94 200//94 201//94
f 202//94 177//94 173//94
f 175//94 181//94 203//94
f 175//94 203//94 204//94
f 202//94 173//94 175//94
f 205//94 202//94 175//94
f 175//94 204//94 206//94
f 175//94 206//94 207//94
f 208//94 205//94 175//94
f 175//94 207//94 208//94
f 209//95 210//95 203//95
f 209//95 203//95 181//95
f 211//96 209//96 181//96
f 211//96 181//96 180//96
f 212//94 213//94 214//94
f 214//94 215//94 216//94
f 216//94 217//94 218//94
f 218//94 219//94 220//94
f 220//94 221//94 222//94
f 222//94 223//94 224//94
f 224//94 225//94 226//94
f 226//94 210//94 209//94
f 209//94 211//94 227//94
f 227//94 228//94 229//94
f 229//94 230//94 231//94
f 231//94 232//94 233//94
f 233//94 234//94 235//94
f 235//94 236//94 237//94
f 237//94 238//94 239//94
f 239//94 240//94 212//94
f 212//94 214//94 216//94
f 216//94 218//94 220//94
f 220//94 222//94 224//94
f 224//94 226//94 209//94
f 209//94 227//94 229//94
f 229//94 231//94 233//94
f 233//94 235//94 237//94
f 237//94 239//94 212//94
f 212//94 216//94 220//94
f 220//94 224//94 209//94
f 209//94 229//94 233//94
f 233//94 237//94 212//94
f 212//94 220//94 209//94
f 209//94 233//94 212//94
f 210//97 226//97 204//97
f 210//97 204//97 203//97
f 226//98 225//98 206//98
f 226//98 206//98 204//98
f 225//99 224//99 207//99
f 225//99 207//99 206//99
f 224//100 223//100 208//100
f 224//100 208//100 207//100
f 223//101 222//101 205//101
f 223//101 205//101 208//101
f 222//102 221//102 202//102
f 222//102 202//102 205//102
f 221//103 220//103 177//103
f 221//103 177//103 202//103
f 177//104 220//104 219//104
f 177//104 219//104 178//104
f 178//105 219//105 218//105
f 178//105 218//105 179//105
f 179//106 218//106 217//106
f 179//106 217//106 183//106
f 183//107 217//107 216//107
f 183//107 216//107 185//107
f 185//108 216//108 215//108
f 185//108 215//108 186//108
f 186//109 215//109 214//109
f 186//109 214//109 189//109
f 189//110 214//110 213//110
f 189//110 213//110 190//110
f 190//111 213//111 212//111
f 190//111 212//111 193//111
f 193//112 212//112 240//112
f 193//112 240//112 194//112
f 194//113 240//113 239//113
f 194//113 239//113 197//113
f 197//114 239//114 238//114
f 197//114 238//114 200//114
f 200//115 238//115 237//115
f 200//115 237//115 201//115
f 201//116 237//116 236//116
f 201//116 236//116 199//116
f 199//117 236//117 235//117
f 199//117 235//117 198//117
f 198//118 235//118 234//118
f 198//118 234//118 196//118
f 196//119 234//119 233//119
f 196//119 233//119 195//119
f 233//120 232//120 192//120
f 233//120 192//120 195//120
f 232//121 231//121 191//121
f 232//121 191//121 192//121
f 231//122 230//122 188//122
f 231//122 188//122 191//122
f 230//123 229//123 187//123
f 230//123 187//123 188//123
f 229//124 228//124 184//124
f 229//124 184//124 187//124
f 228//125 227//125 182//125
f 228//125 182//125 184//125
f 227//126 211//126 180//126
f 227//126 180//126 182//126
f 169//127 174//127 176//127
f 169//127 176//127 170//127
o nest_base
v 112.516899 -27.597281 -35.107067
v 112.516899 -27.597281 35.107067
v 182.731033 -27.597281 35.107067
v 182.731033 -27.597281 -35.107067
v 182.731033 -28.092052 35.107067
v 112.516899 -28.092052 35.107067
v 112.516899 -28.741903 35.107067
v 182.731033 -28.741903 35.107067
v 182.731033 -28.092052 -35.107067
v 112.516899 -28.092052 -35.107067
v 112.516899 -28.741903 -35.107067
v 182.731033 -28.741903 -35.107067
vn -0.0000 1.0000 -0.0000
vn -0.0000 -0.0000 1.0000
vn -0.0000 -0.0000 -1.0000
vn 1.0000 -0.0000 -0.0000
vn -1.0000 -0.0000 -0.0000
vn -0.0000 -1.0000 -0.0000
s 0
f 241//128 242//128 243//128
f 241//128 243//128 244//128
f 245//129 246//129 247//129
f 245//129 247//129 248//129
f 243//129 242//129 246//129
f 243//129 246//129 245//129
f 241//130 244//130 249//130
f 241//130 249//130 250//130
f 244//131 243//131 245//131
f 244//131 245//131 249//131
f 242//132 241//132 250//132
f 242//132 250//132 246//132
f 251//133 252//133 248//133
f 251//133 248//133 247//133
f 250//130 249//130 252//130
f 250//130 252//130 251//130
f 249//131 245//131 248//131
f 249//131 248//131 252//131
f 246//132 250//132 251//132
f 246//132 251//132 247//132
o nest_cover
v 113.290695 -28.741903 35.134571
v 113.290695 18.067518 35.134571
v 113.290695 18.067518 -35.079563
v 113.290695 -28.741903 -35.079563
v 183.504822 18.067518 -35.079563
v 183.504822 -28.741903 -35.079563
v 183.504822 18.067518 35.134571
v 183.504822 -28.741903 35.134571
vn -1.0000 -0.0000 -0.0000
vn -0.0000 -0.0000 -1.0000
vn 1.0000 -0.0000 -0.0000
vn -0.0000 -0.0000 1.0000
vn -0.0000 1.0000 -0.0000
s 0
f 253//134 254//134 255//134
f 253//134 255//134 256//134
f 256//135 255//135 257//135
f 256//135 257//135 258//135
f 258//136 257//136 259//136
f 258//136 259//136 260//136
f 260//137 259//137 254//137
f 260//137 254//137 253//137
f 257//138 255//138 254//138
f 257//138 254//138 259//138
o tunnel
v 68.537231 -6.410684 -4.653439
v 68.537231 4.121436 -4.653439
v 127.049011 4.121436 -4.653439
v 127.049011 -6.410684 -4.653439
v 127.049011 -6.410684 4.708446
v 127.049011 4.121436 4.708446
v 68.537231 4.121436 4.708446
v 68.537231 -6.410684 4.708446
vn -0.0000 -0.0000 -1.0000
vn -0.0000 -0.0000 1.0000
vn -0.0000 -1.0000 -0.0000
vn -0.0000 1.0000 -0.0000
s 0
f 261//139 262//139 263//139
f 261//139 263//139 264//139
f 265//140 266//140 267//140
f 265//140 267//140 268//140
f 261//141 264//141 265//141
f 261//141 265//141 268//141
f 263//142 262//142 267//142
f 263//142 267//142 266//142
